<svg width="227" height="44" viewBox="0 0 227 44" fill="none" xmlns="http://www.w3.org/2000/svg">
<circle cx="9" cy="22" r="9" fill="#3B9D39"/>
<path d="M216.854 44H72.7864C67.7136 44 62.6408 43.12 58.5825 41.36L21.0437 25.08C16.9854 23.32 16.9854 20.68 21.0437 18.92L58.5825 2.64C62.6408 0.88 67.7136 0 72.7864 0H216.854C222.942 0 227 1.76 227 4.4V39.6C227 42.24 222.942 44 216.854 44Z" fill="#019255" fill-opacity="0.5"/>
<mask id="path-3-inside-1_650_732" fill="white">
<path d="M82.1709 31L80.1069 25.696H73.3149L71.2749 31H69.0909L75.7869 13.792H77.7309L84.4029 31H82.1709ZM77.5389 18.592C77.4909 18.464 77.4109 18.232 77.2989 17.896C77.1869 17.56 77.0749 17.216 76.9629 16.864C76.8669 16.496 76.7869 16.216 76.7229 16.024C76.6429 16.344 76.5549 16.672 76.4589 17.008C76.3789 17.328 76.2909 17.624 76.1949 17.896C76.1149 18.168 76.0429 18.4 75.9789 18.592L74.0349 23.776H79.4589L77.5389 18.592ZM79.1469 9.208C79.1469 9.816 78.9629 10.288 78.5949 10.624C78.2269 10.944 77.7629 11.168 77.2029 11.296L77.0829 12.568H75.7869L75.6189 10.528C76.1949 10.432 76.6509 10.296 76.9869 10.12C77.3389 9.928 77.5149 9.648 77.5149 9.28C77.5149 8.896 77.3629 8.64 77.0589 8.512C76.7709 8.384 76.4029 8.32 75.9549 8.32C75.7469 8.32 75.5309 8.328 75.3069 8.344C75.0989 8.36 74.9309 8.384 74.8029 8.416V7.168C74.9469 7.12 75.1229 7.088 75.3309 7.072C75.5549 7.04 75.8189 7.024 76.1229 7.024C77.0829 7.024 77.8269 7.2 78.3549 7.552C78.8829 7.904 79.1469 8.456 79.1469 9.208ZM92.267 17.608C93.867 17.608 95.163 18.096 96.155 19.072C97.147 20.032 97.643 21.424 97.643 23.248V31H95.483V23.56C95.483 22.248 95.155 21.248 94.499 20.56C93.843 19.856 92.947 19.504 91.811 19.504C90.659 19.504 89.739 19.864 89.051 20.584C88.379 21.304 88.043 22.352 88.043 23.728V31H85.859V17.848H88.043V19.72C88.475 19.048 89.059 18.528 89.795 18.16C90.547 17.792 91.371 17.608 92.267 17.608ZM107.331 17.608C108.323 17.608 109.219 17.824 110.019 18.256C110.819 18.672 111.443 19.304 111.891 20.152C112.355 21 112.587 22.032 112.587 23.248V31H110.427V23.56C110.427 22.248 110.099 21.248 109.443 20.56C108.787 19.856 107.891 19.504 106.755 19.504C105.603 19.504 104.683 19.864 103.995 20.584C103.323 21.304 102.987 22.352 102.987 23.728V31H100.803V13.24H102.987V19.72C103.419 19.048 104.011 18.528 104.763 18.16C105.531 17.792 106.387 17.608 107.331 17.608ZM135.729 16.48H134.265V31H132.057V28.528C131.625 29.312 130.985 29.96 130.137 30.472C129.289 30.968 128.297 31.216 127.161 31.216C125.993 31.216 124.929 30.928 123.969 30.352C123.025 29.776 122.281 28.968 121.737 27.928C121.193 26.888 120.921 25.704 120.921 24.376C120.921 23.032 121.193 21.856 121.737 20.848C122.281 19.824 123.025 19.032 123.969 18.472C124.929 17.912 126.001 17.632 127.185 17.632C128.209 17.632 129.161 17.872 130.041 18.352C130.921 18.816 131.593 19.432 132.057 20.2V16.48H129.369V15.184H132.057V13.24H134.265V15.184H135.729V16.48ZM127.593 29.296C128.409 29.296 129.153 29.104 129.825 28.72C130.513 28.32 131.057 27.752 131.457 27.016C131.857 26.264 132.057 25.392 132.057 24.4C132.057 23.408 131.857 22.544 131.457 21.808C131.057 21.072 130.513 20.512 129.825 20.128C129.153 19.728 128.409 19.528 127.593 19.528C126.777 19.528 126.033 19.72 125.361 20.104C124.689 20.488 124.153 21.048 123.753 21.784C123.353 22.52 123.153 23.384 123.153 24.376C123.153 25.384 123.353 26.264 123.753 27.016C124.153 27.752 124.689 28.32 125.361 28.72C126.033 29.104 126.777 29.296 127.593 29.296ZM142.588 17.92C144.156 17.92 145.316 18.264 146.068 18.952C146.82 19.64 147.196 20.736 147.196 22.24V31H145.66L145.252 29.176H145.156C144.788 29.64 144.404 30.032 144.004 30.352C143.62 30.656 143.172 30.88 142.66 31.024C142.164 31.168 141.556 31.24 140.836 31.24C140.068 31.24 139.372 31.104 138.748 30.832C138.14 30.56 137.66 30.144 137.308 29.584C136.956 29.008 136.78 28.288 136.78 27.424C136.78 26.144 137.284 25.16 138.292 24.472C139.3 23.768 140.852 23.384 142.948 23.32L145.132 23.248V22.48C145.132 21.408 144.9 20.664 144.436 20.248C143.972 19.832 143.316 19.624 142.468 19.624C141.796 19.624 141.156 19.728 140.548 19.936C139.94 20.128 139.372 20.352 138.844 20.608L138.196 19.024C138.756 18.72 139.42 18.464 140.188 18.256C140.956 18.032 141.756 17.92 142.588 17.92ZM143.212 24.784C141.612 24.848 140.5 25.104 139.876 25.552C139.268 26 138.964 26.632 138.964 27.448C138.964 28.168 139.18 28.696 139.612 29.032C140.06 29.368 140.628 29.536 141.316 29.536C142.404 29.536 143.308 29.24 144.028 28.648C144.748 28.04 145.108 27.112 145.108 25.864V24.712L143.212 24.784ZM142.396 35.224C142.06 35.224 141.764 35.112 141.508 34.888C141.268 34.664 141.148 34.328 141.148 33.88C141.148 33.416 141.268 33.072 141.508 32.848C141.764 32.64 142.06 32.536 142.396 32.536C142.732 32.536 143.02 32.64 143.26 32.848C143.516 33.072 143.644 33.416 143.644 33.88C143.644 34.328 143.516 34.664 143.26 34.888C143.02 35.112 142.732 35.224 142.396 35.224ZM151.697 15.712C151.281 15.712 150.929 15.568 150.641 15.28C150.353 14.992 150.209 14.64 150.209 14.224C150.209 13.808 150.353 13.456 150.641 13.168C150.929 12.88 151.281 12.736 151.697 12.736C152.097 12.736 152.433 12.88 152.705 13.168C152.993 13.456 153.137 13.808 153.137 14.224C153.137 14.64 152.993 14.992 152.705 15.28C152.433 15.568 152.097 15.712 151.697 15.712ZM152.753 17.848V31H150.569V17.848H152.753ZM161.242 24.376C161.242 23.032 161.514 21.856 162.058 20.848C162.602 19.824 163.346 19.032 164.29 18.472C165.25 17.912 166.322 17.632 167.506 17.632C168.53 17.632 169.482 17.872 170.362 18.352C171.242 18.816 171.914 19.432 172.378 20.2V13.24H174.586V31H172.378V28.528C171.946 29.312 171.306 29.96 170.458 30.472C169.61 30.968 168.618 31.216 167.482 31.216C166.314 31.216 165.25 30.928 164.29 30.352C163.346 29.776 162.602 28.968 162.058 27.928C161.514 26.888 161.242 25.704 161.242 24.376ZM172.378 24.4C172.378 23.408 172.178 22.544 171.778 21.808C171.378 21.072 170.834 20.512 170.146 20.128C169.474 19.728 168.73 19.528 167.914 19.528C167.098 19.528 166.354 19.72 165.682 20.104C165.01 20.488 164.474 21.048 164.074 21.784C163.674 22.52 163.474 23.384 163.474 24.376C163.474 25.384 163.674 26.264 164.074 27.016C164.474 27.752 165.01 28.32 165.682 28.72C166.354 29.104 167.098 29.296 167.914 29.296C168.73 29.296 169.474 29.104 170.146 28.72C170.834 28.32 171.378 27.752 171.778 27.016C172.178 26.264 172.378 25.392 172.378 24.4ZM178.996 15.712C178.58 15.712 178.228 15.568 177.94 15.28C177.652 14.992 177.508 14.64 177.508 14.224C177.508 13.808 177.652 13.456 177.94 13.168C178.228 12.88 178.58 12.736 178.996 12.736C179.396 12.736 179.732 12.88 180.004 13.168C180.292 13.456 180.436 13.808 180.436 14.224C180.436 14.64 180.292 14.992 180.004 15.28C179.732 15.568 179.396 15.712 178.996 15.712ZM180.052 17.848V31H177.868V17.848H180.052ZM188.527 17.896C189.631 17.896 190.575 18.136 191.359 18.616C192.159 19.096 192.767 19.776 193.183 20.656C193.615 21.52 193.831 22.536 193.831 23.704V24.976H185.023C185.055 26.432 185.423 27.544 186.127 28.312C186.847 29.064 187.847 29.44 189.127 29.44C189.943 29.44 190.663 29.368 191.287 29.224C191.927 29.064 192.583 28.84 193.255 28.552V30.4C192.599 30.688 191.951 30.896 191.311 31.024C190.671 31.168 189.911 31.24 189.031 31.24C187.815 31.24 186.735 30.992 185.791 30.496C184.863 30 184.135 29.264 183.607 28.288C183.095 27.296 182.839 26.088 182.839 24.664C182.839 23.256 183.071 22.048 183.535 21.04C184.015 20.032 184.679 19.256 185.527 18.712C186.391 18.168 187.391 17.896 188.527 17.896ZM188.503 19.624C187.495 19.624 186.695 19.952 186.103 20.608C185.527 21.248 185.183 22.144 185.071 23.296H191.623C191.623 22.56 191.511 21.92 191.287 21.376C191.063 20.832 190.719 20.408 190.255 20.104C189.807 19.784 189.223 19.624 188.503 19.624ZM189.463 12.616C189.655 12.968 189.927 13.368 190.279 13.816C190.647 14.248 191.023 14.68 191.407 15.112C191.807 15.528 192.159 15.888 192.463 16.192V16.456H190.975C190.559 16.2 190.127 15.888 189.679 15.52C189.231 15.136 188.791 14.728 188.359 14.296C187.927 14.728 187.495 15.128 187.063 15.496C186.631 15.864 186.207 16.184 185.791 16.456H184.351V16.192C184.655 15.872 184.991 15.504 185.359 15.088C185.743 14.672 186.111 14.248 186.463 13.816C186.815 13.368 187.095 12.968 187.303 12.616H189.463ZM188.719 35.224C188.383 35.224 188.087 35.112 187.831 34.888C187.591 34.664 187.471 34.328 187.471 33.88C187.471 33.416 187.591 33.072 187.831 32.848C188.087 32.64 188.383 32.536 188.719 32.536C189.055 32.536 189.343 32.64 189.583 32.848C189.839 33.072 189.967 33.416 189.967 33.88C189.967 34.328 189.839 34.664 189.583 34.888C189.343 35.112 189.055 35.224 188.719 35.224ZM202.914 17.608C204.514 17.608 205.81 18.096 206.802 19.072C207.794 20.032 208.29 21.424 208.29 23.248V31H206.13V23.56C206.13 22.248 205.802 21.248 205.146 20.56C204.49 19.856 203.594 19.504 202.458 19.504C201.306 19.504 200.386 19.864 199.698 20.584C199.026 21.304 198.69 22.352 198.69 23.728V31H196.506V17.848H198.69V19.72C199.122 19.048 199.706 18.528 200.442 18.16C201.194 17.792 202.018 17.608 202.914 17.608Z"/>
</mask>
<path d="M82.1709 31L80.1069 25.696H73.3149L71.2749 31H69.0909L75.7869 13.792H77.7309L84.4029 31H82.1709ZM77.5389 18.592C77.4909 18.464 77.4109 18.232 77.2989 17.896C77.1869 17.56 77.0749 17.216 76.9629 16.864C76.8669 16.496 76.7869 16.216 76.7229 16.024C76.6429 16.344 76.5549 16.672 76.4589 17.008C76.3789 17.328 76.2909 17.624 76.1949 17.896C76.1149 18.168 76.0429 18.4 75.9789 18.592L74.0349 23.776H79.4589L77.5389 18.592ZM79.1469 9.208C79.1469 9.816 78.9629 10.288 78.5949 10.624C78.2269 10.944 77.7629 11.168 77.2029 11.296L77.0829 12.568H75.7869L75.6189 10.528C76.1949 10.432 76.6509 10.296 76.9869 10.12C77.3389 9.928 77.5149 9.648 77.5149 9.28C77.5149 8.896 77.3629 8.64 77.0589 8.512C76.7709 8.384 76.4029 8.32 75.9549 8.32C75.7469 8.32 75.5309 8.328 75.3069 8.344C75.0989 8.36 74.9309 8.384 74.8029 8.416V7.168C74.9469 7.12 75.1229 7.088 75.3309 7.072C75.5549 7.04 75.8189 7.024 76.1229 7.024C77.0829 7.024 77.8269 7.2 78.3549 7.552C78.8829 7.904 79.1469 8.456 79.1469 9.208ZM92.267 17.608C93.867 17.608 95.163 18.096 96.155 19.072C97.147 20.032 97.643 21.424 97.643 23.248V31H95.483V23.56C95.483 22.248 95.155 21.248 94.499 20.56C93.843 19.856 92.947 19.504 91.811 19.504C90.659 19.504 89.739 19.864 89.051 20.584C88.379 21.304 88.043 22.352 88.043 23.728V31H85.859V17.848H88.043V19.72C88.475 19.048 89.059 18.528 89.795 18.16C90.547 17.792 91.371 17.608 92.267 17.608ZM107.331 17.608C108.323 17.608 109.219 17.824 110.019 18.256C110.819 18.672 111.443 19.304 111.891 20.152C112.355 21 112.587 22.032 112.587 23.248V31H110.427V23.56C110.427 22.248 110.099 21.248 109.443 20.56C108.787 19.856 107.891 19.504 106.755 19.504C105.603 19.504 104.683 19.864 103.995 20.584C103.323 21.304 102.987 22.352 102.987 23.728V31H100.803V13.24H102.987V19.72C103.419 19.048 104.011 18.528 104.763 18.16C105.531 17.792 106.387 17.608 107.331 17.608ZM135.729 16.48H134.265V31H132.057V28.528C131.625 29.312 130.985 29.96 130.137 30.472C129.289 30.968 128.297 31.216 127.161 31.216C125.993 31.216 124.929 30.928 123.969 30.352C123.025 29.776 122.281 28.968 121.737 27.928C121.193 26.888 120.921 25.704 120.921 24.376C120.921 23.032 121.193 21.856 121.737 20.848C122.281 19.824 123.025 19.032 123.969 18.472C124.929 17.912 126.001 17.632 127.185 17.632C128.209 17.632 129.161 17.872 130.041 18.352C130.921 18.816 131.593 19.432 132.057 20.2V16.48H129.369V15.184H132.057V13.24H134.265V15.184H135.729V16.48ZM127.593 29.296C128.409 29.296 129.153 29.104 129.825 28.72C130.513 28.32 131.057 27.752 131.457 27.016C131.857 26.264 132.057 25.392 132.057 24.4C132.057 23.408 131.857 22.544 131.457 21.808C131.057 21.072 130.513 20.512 129.825 20.128C129.153 19.728 128.409 19.528 127.593 19.528C126.777 19.528 126.033 19.72 125.361 20.104C124.689 20.488 124.153 21.048 123.753 21.784C123.353 22.52 123.153 23.384 123.153 24.376C123.153 25.384 123.353 26.264 123.753 27.016C124.153 27.752 124.689 28.32 125.361 28.72C126.033 29.104 126.777 29.296 127.593 29.296ZM142.588 17.92C144.156 17.92 145.316 18.264 146.068 18.952C146.82 19.64 147.196 20.736 147.196 22.24V31H145.66L145.252 29.176H145.156C144.788 29.64 144.404 30.032 144.004 30.352C143.62 30.656 143.172 30.88 142.66 31.024C142.164 31.168 141.556 31.24 140.836 31.24C140.068 31.24 139.372 31.104 138.748 30.832C138.14 30.56 137.66 30.144 137.308 29.584C136.956 29.008 136.78 28.288 136.78 27.424C136.78 26.144 137.284 25.16 138.292 24.472C139.3 23.768 140.852 23.384 142.948 23.32L145.132 23.248V22.48C145.132 21.408 144.9 20.664 144.436 20.248C143.972 19.832 143.316 19.624 142.468 19.624C141.796 19.624 141.156 19.728 140.548 19.936C139.94 20.128 139.372 20.352 138.844 20.608L138.196 19.024C138.756 18.72 139.42 18.464 140.188 18.256C140.956 18.032 141.756 17.92 142.588 17.92ZM143.212 24.784C141.612 24.848 140.5 25.104 139.876 25.552C139.268 26 138.964 26.632 138.964 27.448C138.964 28.168 139.18 28.696 139.612 29.032C140.06 29.368 140.628 29.536 141.316 29.536C142.404 29.536 143.308 29.24 144.028 28.648C144.748 28.04 145.108 27.112 145.108 25.864V24.712L143.212 24.784ZM142.396 35.224C142.06 35.224 141.764 35.112 141.508 34.888C141.268 34.664 141.148 34.328 141.148 33.88C141.148 33.416 141.268 33.072 141.508 32.848C141.764 32.64 142.06 32.536 142.396 32.536C142.732 32.536 143.02 32.64 143.26 32.848C143.516 33.072 143.644 33.416 143.644 33.88C143.644 34.328 143.516 34.664 143.26 34.888C143.02 35.112 142.732 35.224 142.396 35.224ZM151.697 15.712C151.281 15.712 150.929 15.568 150.641 15.28C150.353 14.992 150.209 14.64 150.209 14.224C150.209 13.808 150.353 13.456 150.641 13.168C150.929 12.88 151.281 12.736 151.697 12.736C152.097 12.736 152.433 12.88 152.705 13.168C152.993 13.456 153.137 13.808 153.137 14.224C153.137 14.64 152.993 14.992 152.705 15.28C152.433 15.568 152.097 15.712 151.697 15.712ZM152.753 17.848V31H150.569V17.848H152.753ZM161.242 24.376C161.242 23.032 161.514 21.856 162.058 20.848C162.602 19.824 163.346 19.032 164.29 18.472C165.25 17.912 166.322 17.632 167.506 17.632C168.53 17.632 169.482 17.872 170.362 18.352C171.242 18.816 171.914 19.432 172.378 20.2V13.24H174.586V31H172.378V28.528C171.946 29.312 171.306 29.96 170.458 30.472C169.61 30.968 168.618 31.216 167.482 31.216C166.314 31.216 165.25 30.928 164.29 30.352C163.346 29.776 162.602 28.968 162.058 27.928C161.514 26.888 161.242 25.704 161.242 24.376ZM172.378 24.4C172.378 23.408 172.178 22.544 171.778 21.808C171.378 21.072 170.834 20.512 170.146 20.128C169.474 19.728 168.73 19.528 167.914 19.528C167.098 19.528 166.354 19.72 165.682 20.104C165.01 20.488 164.474 21.048 164.074 21.784C163.674 22.52 163.474 23.384 163.474 24.376C163.474 25.384 163.674 26.264 164.074 27.016C164.474 27.752 165.01 28.32 165.682 28.72C166.354 29.104 167.098 29.296 167.914 29.296C168.73 29.296 169.474 29.104 170.146 28.72C170.834 28.32 171.378 27.752 171.778 27.016C172.178 26.264 172.378 25.392 172.378 24.4ZM178.996 15.712C178.58 15.712 178.228 15.568 177.94 15.28C177.652 14.992 177.508 14.64 177.508 14.224C177.508 13.808 177.652 13.456 177.94 13.168C178.228 12.88 178.58 12.736 178.996 12.736C179.396 12.736 179.732 12.88 180.004 13.168C180.292 13.456 180.436 13.808 180.436 14.224C180.436 14.64 180.292 14.992 180.004 15.28C179.732 15.568 179.396 15.712 178.996 15.712ZM180.052 17.848V31H177.868V17.848H180.052ZM188.527 17.896C189.631 17.896 190.575 18.136 191.359 18.616C192.159 19.096 192.767 19.776 193.183 20.656C193.615 21.52 193.831 22.536 193.831 23.704V24.976H185.023C185.055 26.432 185.423 27.544 186.127 28.312C186.847 29.064 187.847 29.44 189.127 29.44C189.943 29.44 190.663 29.368 191.287 29.224C191.927 29.064 192.583 28.84 193.255 28.552V30.4C192.599 30.688 191.951 30.896 191.311 31.024C190.671 31.168 189.911 31.24 189.031 31.24C187.815 31.24 186.735 30.992 185.791 30.496C184.863 30 184.135 29.264 183.607 28.288C183.095 27.296 182.839 26.088 182.839 24.664C182.839 23.256 183.071 22.048 183.535 21.04C184.015 20.032 184.679 19.256 185.527 18.712C186.391 18.168 187.391 17.896 188.527 17.896ZM188.503 19.624C187.495 19.624 186.695 19.952 186.103 20.608C185.527 21.248 185.183 22.144 185.071 23.296H191.623C191.623 22.56 191.511 21.92 191.287 21.376C191.063 20.832 190.719 20.408 190.255 20.104C189.807 19.784 189.223 19.624 188.503 19.624ZM189.463 12.616C189.655 12.968 189.927 13.368 190.279 13.816C190.647 14.248 191.023 14.68 191.407 15.112C191.807 15.528 192.159 15.888 192.463 16.192V16.456H190.975C190.559 16.2 190.127 15.888 189.679 15.52C189.231 15.136 188.791 14.728 188.359 14.296C187.927 14.728 187.495 15.128 187.063 15.496C186.631 15.864 186.207 16.184 185.791 16.456H184.351V16.192C184.655 15.872 184.991 15.504 185.359 15.088C185.743 14.672 186.111 14.248 186.463 13.816C186.815 13.368 187.095 12.968 187.303 12.616H189.463ZM188.719 35.224C188.383 35.224 188.087 35.112 187.831 34.888C187.591 34.664 187.471 34.328 187.471 33.88C187.471 33.416 187.591 33.072 187.831 32.848C188.087 32.64 188.383 32.536 188.719 32.536C189.055 32.536 189.343 32.64 189.583 32.848C189.839 33.072 189.967 33.416 189.967 33.88C189.967 34.328 189.839 34.664 189.583 34.888C189.343 35.112 189.055 35.224 188.719 35.224ZM202.914 17.608C204.514 17.608 205.81 18.096 206.802 19.072C207.794 20.032 208.29 21.424 208.29 23.248V31H206.13V23.56C206.13 22.248 205.802 21.248 205.146 20.56C204.49 19.856 203.594 19.504 202.458 19.504C201.306 19.504 200.386 19.864 199.698 20.584C199.026 21.304 198.69 22.352 198.69 23.728V31H196.506V17.848H198.69V19.72C199.122 19.048 199.706 18.528 200.442 18.16C201.194 17.792 202.018 17.608 202.914 17.608Z" fill="black"/>
<path d="M82.1709 31L81.239 31.3626L81.487 32H82.1709V31ZM80.1069 25.696L81.0388 25.3333L80.7908 24.696H80.1069V25.696ZM73.3149 25.696V24.696H72.6281L72.3815 25.337L73.3149 25.696ZM71.2749 31V32H71.9617L72.2082 31.359L71.2749 31ZM69.0909 31L68.1589 30.6374L67.6287 32H69.0909V31ZM75.7869 13.792V12.792H75.103L74.8549 13.4294L75.7869 13.792ZM77.7309 13.792L78.6633 13.4305L78.4157 12.792H77.7309V13.792ZM84.4029 31V32H85.8631L85.3353 30.6385L84.4029 31ZM77.5389 18.592L78.4766 18.2447L78.4752 18.2409L77.5389 18.592ZM77.2989 17.896L76.3502 18.2122L76.3502 18.2122L77.2989 17.896ZM76.9629 16.864L75.9953 17.1164L76.0019 17.142L76.01 17.1672L76.9629 16.864ZM76.7229 16.024L77.6716 15.7078L76.5856 12.4499L75.7527 15.7815L76.7229 16.024ZM76.4589 17.008L75.4974 16.7333L75.4928 16.7493L75.4887 16.7655L76.4589 17.008ZM76.1949 17.896L75.2519 17.5632L75.243 17.5883L75.2355 17.6138L76.1949 17.896ZM75.9789 18.592L76.9152 18.9431L76.9217 18.9258L76.9276 18.9082L75.9789 18.592ZM74.0349 23.776L73.0986 23.4249L72.5919 24.776H74.0349V23.776ZM79.4589 23.776V24.776H80.8956L80.3966 23.4287L79.4589 23.776ZM78.5949 10.624L79.2511 11.3786L79.2602 11.3707L79.2692 11.3625L78.5949 10.624ZM77.2029 11.296L76.9801 10.3211L76.2752 10.4822L76.2073 11.2021L77.2029 11.296ZM77.0829 12.568V13.568H77.993L78.0785 12.6619L77.0829 12.568ZM75.7869 12.568L74.7903 12.6501L74.8658 13.568H75.7869V12.568ZM75.6189 10.528L75.4545 9.5416L74.5467 9.6929L74.6223 10.6101L75.6189 10.528ZM76.9869 10.12L77.4509 11.0058L77.4583 11.0019L77.4657 10.9979L76.9869 10.12ZM77.0589 8.512L76.6527 9.42581L76.6617 9.42981L76.6708 9.43363L77.0589 8.512ZM75.3069 8.344L75.2356 7.34653L75.2302 7.34694L75.3069 8.344ZM74.8029 8.416H73.8029V9.69677L75.0454 9.38614L74.8029 8.416ZM74.8029 7.168L74.4867 6.21932L73.8029 6.44724V7.168H74.8029ZM75.3309 7.072L75.4076 8.06905L75.4401 8.06656L75.4723 8.06195L75.3309 7.072ZM78.3549 7.552L77.8002 8.38405L78.3549 7.552ZM83.1028 30.6374L81.0388 25.3333L79.175 26.0586L81.239 31.3626L83.1028 30.6374ZM80.1069 24.696H73.3149V26.696H80.1069V24.696ZM72.3815 25.337L70.3415 30.641L72.2082 31.359L74.2482 26.055L72.3815 25.337ZM71.2749 30H69.0909V32H71.2749V30ZM70.0228 31.3626L76.7188 14.1546L74.8549 13.4294L68.1589 30.6374L70.0228 31.3626ZM75.7869 14.792H77.7309V12.792H75.7869V14.792ZM76.7985 14.1535L83.4705 31.3615L85.3353 30.6385L78.6633 13.4305L76.7985 14.1535ZM84.4029 30H82.1709V32H84.4029V30ZM78.4752 18.2409C78.4345 18.1324 78.3599 17.9167 78.2476 17.5798L76.3502 18.2122C76.4619 18.5473 76.5472 18.7956 76.6026 18.9431L78.4752 18.2409ZM78.2476 17.5798C78.1371 17.2483 78.0265 16.9086 77.9158 16.5608L76.01 17.1672C76.1233 17.5234 76.2367 17.8717 76.3502 18.2122L78.2476 17.5798ZM77.9305 16.6116C77.8328 16.2372 77.7462 15.9317 77.6716 15.7078L75.7742 16.3402C75.8275 16.5003 75.9009 16.7548 75.9953 17.1164L77.9305 16.6116ZM75.7527 15.7815C75.6756 16.0901 75.5905 16.4073 75.4974 16.7333L77.4204 17.2827C77.5193 16.9367 77.6102 16.5979 77.693 16.2665L75.7527 15.7815ZM75.4887 16.7655C75.4153 17.0592 75.3361 17.3247 75.2519 17.5632L77.1379 18.2288C77.2457 17.9233 77.3425 17.5968 77.429 17.2505L75.4887 16.7655ZM75.2355 17.6138C75.1577 17.8785 75.0893 18.0985 75.0302 18.2758L76.9276 18.9082C76.9965 18.7015 77.0721 18.4575 77.1542 18.1782L75.2355 17.6138ZM75.0426 18.2409L73.0986 23.4249L74.9712 24.1271L76.9152 18.9431L75.0426 18.2409ZM74.0349 24.776H79.4589V22.776H74.0349V24.776ZM80.3966 23.4287L78.4766 18.2447L76.6011 18.9393L78.5211 24.1233L80.3966 23.4287ZM78.1469 9.208C78.1469 9.60182 78.0364 9.77978 77.9206 9.88551L79.2692 11.3625C79.8893 10.7962 80.1469 10.0302 80.1469 9.208H78.1469ZM77.9387 9.86939C77.7152 10.0637 77.4082 10.2233 76.9801 10.3211L77.4257 12.2709C78.1175 12.1127 78.7386 11.8243 79.2511 11.3786L77.9387 9.86939ZM76.2073 11.2021L76.0873 12.4741L78.0785 12.6619L78.1985 11.3899L76.2073 11.2021ZM77.0829 11.568H75.7869V13.568H77.0829V11.568ZM76.7835 12.4859L76.6155 10.4459L74.6223 10.6101L74.7903 12.6501L76.7835 12.4859ZM75.7833 11.5144C76.4138 11.4093 76.9847 11.25 77.4509 11.0058L76.5229 9.23417C76.3171 9.34195 75.976 9.45469 75.4545 9.5416L75.7833 11.5144ZM77.4657 10.9979C77.7601 10.8373 78.033 10.6108 78.2295 10.2982C78.4288 9.98118 78.5149 9.63039 78.5149 9.28H76.5149C76.5149 9.29188 76.5135 9.28958 76.5168 9.27739C76.5184 9.27151 76.5209 9.26433 76.5243 9.25637C76.5278 9.24841 76.5319 9.24078 76.5362 9.23383C76.5454 9.21923 76.5526 9.21291 76.5514 9.21396C76.5496 9.21557 76.5373 9.22612 76.508 9.2421L77.4657 10.9979ZM78.5149 9.28C78.5149 8.95936 78.4514 8.61062 78.2607 8.28946C78.0637 7.95765 77.7738 7.72797 77.4469 7.59036L76.6708 9.43363C76.6639 9.4307 76.642 9.42025 76.6142 9.39691C76.5857 9.37288 76.5603 9.34292 76.541 9.31054C76.5023 9.24537 76.5149 9.21664 76.5149 9.28H78.5149ZM77.465 7.59819C77.0072 7.3947 76.4881 7.32 75.9549 7.32V9.32C76.3177 9.32 76.5346 9.37329 76.6527 9.42581L77.465 7.59819ZM75.9549 7.32C75.7213 7.32 75.4815 7.32898 75.2356 7.34654L75.3781 9.34146C75.5803 9.32702 75.7724 9.32 75.9549 9.32V7.32ZM75.2302 7.34694C74.9944 7.36508 74.7646 7.39478 74.5603 7.44586L75.0454 9.38614C75.0971 9.37321 75.2033 9.35492 75.3836 9.34105L75.2302 7.34694ZM75.8029 8.416V7.168H73.8029V8.416H75.8029ZM75.1191 8.11668C75.1628 8.10213 75.2531 8.08094 75.4076 8.06905L75.2542 6.07494C74.9927 6.09506 74.731 6.13787 74.4867 6.21932L75.1191 8.11668ZM75.4723 8.06195C75.6367 8.03846 75.8513 8.024 76.1229 8.024V6.024C75.7865 6.024 75.4731 6.04153 75.1895 6.08205L75.4723 8.06195ZM76.1229 8.024C76.9801 8.024 77.5006 8.18436 77.8002 8.38405L78.9096 6.71995C78.1531 6.21564 77.1856 6.024 76.1229 6.024V8.024ZM77.8002 8.38405C77.9954 8.51421 78.1469 8.71899 78.1469 9.208H80.1469C80.1469 8.19301 79.7703 7.29379 78.9096 6.71995L77.8002 8.38405ZM96.155 19.072L95.4536 19.7849L95.4596 19.7906L96.155 19.072ZM97.643 31V32H98.643V31H97.643ZM95.483 31H94.483V32H95.483V31ZM94.499 20.56L93.7673 21.2418L93.7753 21.2501L94.499 20.56ZM89.051 20.584L88.328 19.8931L88.32 19.9017L89.051 20.584ZM88.043 31V32H89.043V31H88.043ZM85.859 31H84.859V32H85.859V31ZM85.859 17.848V16.848H84.859V17.848H85.859ZM88.043 17.848H89.043V16.848H88.043V17.848ZM88.043 19.72H87.043V23.1248L88.8842 20.2608L88.043 19.72ZM89.795 18.16L89.3554 17.2617L89.3478 17.2656L89.795 18.16ZM92.267 18.608C93.6471 18.608 94.677 19.0207 95.4537 19.7848L96.8563 18.3592C95.649 17.1713 94.0869 16.608 92.267 16.608V18.608ZM95.4596 19.7906C96.2002 20.5073 96.643 21.6042 96.643 23.248H98.643C98.643 21.2438 98.0938 19.5567 96.8504 18.3534L95.4596 19.7906ZM96.643 23.248V31H98.643V23.248H96.643ZM97.643 30H95.483V32H97.643V30ZM96.483 31V23.56H94.483V31H96.483ZM96.483 23.56C96.483 22.09 96.1143 20.8049 95.2227 19.8699L93.7753 21.2501C94.1957 21.6911 94.483 22.406 94.483 23.56H96.483ZM95.2306 19.8783C94.3513 18.9346 93.17 18.504 91.811 18.504V20.504C92.7241 20.504 93.3348 20.7774 93.7674 21.2417L95.2306 19.8783ZM91.811 18.504C90.4326 18.504 89.2347 18.9443 88.328 19.8931L89.774 21.2749C90.2433 20.7837 90.8854 20.504 91.811 20.504V18.504ZM88.32 19.9017C87.4167 20.8695 87.043 22.1998 87.043 23.728H89.043C89.043 22.5042 89.3413 21.7385 89.7821 21.2663L88.32 19.9017ZM87.043 23.728V31H89.043V23.728H87.043ZM88.043 30H85.859V32H88.043V30ZM86.859 31V17.848H84.859V31H86.859ZM85.859 18.848H88.043V16.848H85.859V18.848ZM87.043 17.848V19.72H89.043V17.848H87.043ZM88.8842 20.2608C89.216 19.7446 89.6619 19.3446 90.2422 19.0544L89.3478 17.2656C88.4561 17.7114 87.734 18.3514 87.2018 19.1792L88.8842 20.2608ZM90.2346 19.0582C90.8402 18.7618 91.5124 18.608 92.267 18.608V16.608C91.2296 16.608 90.2538 16.8222 89.3555 17.2618L90.2346 19.0582ZM110.019 18.256L109.543 19.1359L109.55 19.1396L109.557 19.1432L110.019 18.256ZM111.891 20.152L111.006 20.6191L111.01 20.6256L111.013 20.632L111.891 20.152ZM112.587 31V32H113.587V31H112.587ZM110.427 31H109.427V32H110.427V31ZM109.443 20.56L108.711 21.2418L108.719 21.2501L109.443 20.56ZM103.995 20.584L103.272 19.8931L103.264 19.9017L103.995 20.584ZM102.987 31V32H103.987V31H102.987ZM100.803 31H99.8026V32H100.803V31ZM100.803 13.24V12.24H99.8026V13.24H100.803ZM102.987 13.24H103.987V12.24H102.987V13.24ZM102.987 19.72H101.987V23.1248L103.828 20.2608L102.987 19.72ZM104.763 18.16L104.33 17.2582L104.323 17.2618L104.763 18.16ZM107.331 18.608C108.172 18.608 108.902 18.7898 109.543 19.1359L110.494 17.3761C109.535 16.8582 108.473 16.608 107.331 16.608V18.608ZM109.557 19.1432C110.165 19.4593 110.647 19.9388 111.006 20.6191L112.775 19.6849C112.238 18.6692 111.472 17.8847 110.48 17.3688L109.557 19.1432ZM111.013 20.632C111.379 21.2996 111.587 22.1573 111.587 23.248H113.587C113.587 21.9067 113.331 20.7004 112.768 19.672L111.013 20.632ZM111.587 23.248V31H113.587V23.248H111.587ZM112.587 30H110.427V32H112.587V30ZM111.427 31V23.56H109.427V31H111.427ZM111.427 23.56C111.427 22.09 111.058 20.8049 110.166 19.8699L108.719 21.2501C109.139 21.6911 109.427 22.406 109.427 23.56H111.427ZM110.174 19.8783C109.295 18.9346 108.114 18.504 106.755 18.504V20.504C107.668 20.504 108.278 20.7774 108.711 21.2417L110.174 19.8783ZM106.755 18.504C105.376 18.504 104.178 18.9443 103.272 19.8931L104.718 21.2749C105.187 20.7837 105.829 20.504 106.755 20.504V18.504ZM103.264 19.9017C102.36 20.8695 101.987 22.1998 101.987 23.728H103.987C103.987 22.5042 104.285 21.7385 104.726 21.2663L103.264 19.9017ZM101.987 23.728V31H103.987V23.728H101.987ZM102.987 30H100.803V32H102.987V30ZM101.803 31V13.24H99.8026V31H101.803ZM100.803 14.24H102.987V12.24H100.803V14.24ZM101.987 13.24V19.72H103.987V13.24H101.987ZM103.828 20.2608C104.156 19.7499 104.606 19.35 105.202 19.0582L104.323 17.2618C103.415 17.706 102.681 18.3461 102.145 19.1792L103.828 20.2608ZM105.195 19.0618C105.814 18.7652 106.52 18.608 107.331 18.608V16.608C106.253 16.608 105.247 16.8188 104.33 17.2582L105.195 19.0618ZM135.729 16.48V17.48H136.729V16.48H135.729ZM134.265 16.48V15.48H133.265V16.48H134.265ZM134.265 31V32H135.265V31H134.265ZM132.057 31H131.057V32H132.057V31ZM132.057 28.528H133.057L131.181 28.0454L132.057 28.528ZM130.137 30.472L130.642 31.3353L130.653 31.3281L130.137 30.472ZM123.969 30.352L123.448 31.2057L123.454 31.2095L123.969 30.352ZM121.737 27.928L122.623 27.4645L121.737 27.928ZM121.737 20.848L122.617 21.3229L122.62 21.3172L121.737 20.848ZM123.969 18.472L123.465 17.6082L123.458 17.6119L123.969 18.472ZM130.041 18.352L129.562 19.23L129.574 19.2366L130.041 18.352ZM132.057 20.2L131.201 20.7171L133.057 23.789V20.2H132.057ZM132.057 16.48H133.057V15.48H132.057V16.48ZM129.369 16.48H128.369V17.48H129.369V16.48ZM129.369 15.184V14.184H128.369V15.184H129.369ZM132.057 15.184V16.184H133.057V15.184H132.057ZM132.057 13.24V12.24H131.057V13.24H132.057ZM134.265 13.24H135.265V12.24H134.265V13.24ZM134.265 15.184H133.265V16.184H134.265V15.184ZM135.729 15.184H136.729V14.184H135.729V15.184ZM129.825 28.72L130.321 29.5883L130.327 29.5845L129.825 28.72ZM131.457 27.016L132.335 27.4935L132.339 27.4856L131.457 27.016ZM129.825 20.128L129.313 20.9873L129.325 20.9944L129.337 21.0012L129.825 20.128ZM125.361 20.104L124.864 19.2358V19.2358L125.361 20.104ZM123.753 21.784L124.631 22.2615V22.2615L123.753 21.784ZM123.753 27.016L122.87 27.4856L122.874 27.4935L123.753 27.016ZM125.361 28.72L124.849 29.5793L124.857 29.5838L124.864 29.5882L125.361 28.72ZM135.729 15.48H134.265V17.48H135.729V15.48ZM133.265 16.48V31H135.265V16.48H133.265ZM134.265 30H132.057V32H134.265V30ZM133.057 31V28.528H131.057V31H133.057ZM131.181 28.0454C130.842 28.6595 130.334 29.1848 129.62 29.6159L130.653 31.3281C131.635 30.7352 132.407 29.9645 132.932 29.0106L131.181 28.0454ZM129.632 29.6088C128.959 30.002 128.147 30.216 127.161 30.216V32.216C128.446 32.216 129.618 31.934 130.641 31.3352L129.632 29.6088ZM127.161 30.216C126.166 30.216 125.281 29.9731 124.483 29.4945L123.454 31.2095C124.576 31.8829 125.82 32.216 127.161 32.216V30.216ZM124.489 29.4984C123.71 29.0227 123.088 28.354 122.623 27.4645L120.85 28.3915C121.473 29.582 122.339 30.5293 123.448 31.2056L124.489 29.4984ZM122.623 27.4645C122.163 26.5854 121.921 25.564 121.921 24.376H119.921C119.921 25.844 120.222 27.1906 120.85 28.3915L122.623 27.4645ZM121.921 24.376C121.921 23.169 122.164 22.1616 122.617 21.3229L120.857 20.3731C120.221 21.5504 119.921 22.895 119.921 24.376H121.921ZM122.62 21.3172C123.083 20.4457 123.702 19.7931 124.479 19.3321L123.458 17.6119C122.348 18.2709 121.478 19.2023 120.853 20.3788L122.62 21.3172ZM124.472 19.3358C125.269 18.8708 126.166 18.632 127.185 18.632V16.632C125.836 16.632 124.588 16.9532 123.465 17.6082L124.472 19.3358ZM127.185 18.632C128.045 18.632 128.832 18.8318 129.562 19.2299L130.519 17.4741C129.489 16.9122 128.372 16.632 127.185 16.632V18.632ZM129.574 19.2366C130.311 19.6253 130.841 20.1213 131.201 20.7171L132.912 19.6829C132.344 18.7427 131.53 18.0067 130.507 17.4674L129.574 19.2366ZM133.057 20.2V16.48H131.057V20.2H133.057ZM132.057 15.48H129.369V17.48H132.057V15.48ZM130.369 16.48V15.184H128.369V16.48H130.369ZM129.369 16.184H132.057V14.184H129.369V16.184ZM133.057 15.184V13.24H131.057V15.184H133.057ZM132.057 14.24H134.265V12.24H132.057V14.24ZM133.265 13.24V15.184H135.265V13.24H133.265ZM134.265 16.184H135.729V14.184H134.265V16.184ZM134.729 15.184V16.48H136.729V15.184H134.729ZM127.593 30.296C128.573 30.296 129.489 30.0633 130.321 29.5882L129.328 27.8518C128.816 28.1447 128.244 28.296 127.593 28.296V30.296ZM130.327 29.5845C131.182 29.0875 131.852 28.3817 132.335 27.4935L130.578 26.5385C130.261 27.1223 129.843 27.5525 129.322 27.8555L130.327 29.5845ZM132.339 27.4856C132.828 26.5669 133.057 25.5287 133.057 24.4H131.057C131.057 25.2553 130.885 25.9611 130.574 26.5464L132.339 27.4856ZM133.057 24.4C133.057 23.2719 132.828 22.2379 132.335 21.3305L130.578 22.2855C130.885 22.8501 131.057 23.5441 131.057 24.4H133.057ZM132.335 21.3305C131.851 20.4392 131.176 19.7369 130.312 19.2548L129.337 21.0012C129.849 21.2871 130.262 21.7048 130.578 22.2855L132.335 21.3305ZM130.336 19.2687C129.502 18.7725 128.58 18.528 127.593 18.528V20.528C128.237 20.528 128.803 20.6835 129.313 20.9873L130.336 19.2687ZM127.593 18.528C126.612 18.528 125.696 18.7607 124.864 19.2358L125.857 20.9722C126.369 20.6793 126.941 20.528 127.593 20.528V18.528ZM124.864 19.2358C124.018 19.7195 123.355 20.4212 122.874 21.3065L124.631 22.2615C124.95 21.6748 125.359 21.2565 125.857 20.9722L124.864 19.2358ZM122.874 21.3065C122.381 22.2139 122.153 23.2479 122.153 24.376H124.153C124.153 23.5201 124.324 22.8261 124.631 22.2615L122.874 21.3065ZM122.153 24.376C122.153 25.5178 122.38 26.5647 122.87 27.4856L124.635 26.5464C124.325 25.9633 124.153 25.2502 124.153 24.376H122.153ZM122.874 27.4935C123.353 28.3758 124.012 29.0808 124.849 29.5793L125.872 27.8607C125.366 27.5592 124.952 27.1282 124.631 26.5385L122.874 27.4935ZM124.864 29.5882C125.696 30.0633 126.612 30.296 127.593 30.296V28.296C126.941 28.296 126.369 28.1447 125.857 27.8518L124.864 29.5882ZM146.068 18.952L146.743 18.2142V18.2142L146.068 18.952ZM147.196 31V32H148.196V31H147.196ZM145.66 31L144.684 31.2183L144.859 32H145.66V31ZM145.252 29.176L146.228 28.9577L146.053 28.176H145.252V29.176ZM145.156 29.176V28.176H144.673L144.372 28.5546L145.156 29.176ZM144.004 30.352L144.625 31.1361L144.629 31.1329L144.004 30.352ZM142.66 31.024L142.389 30.0613L142.381 30.0637L142.66 31.024ZM138.748 30.832L138.339 31.7449L138.348 31.7487L138.748 30.832ZM137.308 29.584L136.455 30.1055L136.461 30.1162L137.308 29.584ZM138.292 24.472L138.856 25.298L138.864 25.2918L138.292 24.472ZM142.948 23.32L142.978 24.3195L142.981 24.3195L142.948 23.32ZM145.132 23.248L145.165 24.2475L146.132 24.2156V23.248H145.132ZM144.436 20.248L143.768 20.9926V20.9926L144.436 20.248ZM140.548 19.936L140.849 20.8896L140.86 20.886L140.872 20.8822L140.548 19.936ZM138.844 20.608L137.918 20.9866L138.322 21.9725L139.28 21.5078L138.844 20.608ZM138.196 19.024L137.719 18.1451L136.931 18.5729L137.27 19.4026L138.196 19.024ZM140.188 18.256L140.449 19.2212L140.459 19.2187L140.468 19.216L140.188 18.256ZM143.212 24.784L143.174 23.7847L143.172 23.7848L143.212 24.784ZM139.876 25.552L139.293 24.7396L139.283 24.7469L139.876 25.552ZM139.612 29.032L138.998 29.8214L139.005 29.8267L139.012 29.832L139.612 29.032ZM144.028 28.648L144.663 29.4205L144.673 29.412L144.028 28.648ZM145.108 24.712H146.108V23.6733L145.07 23.7127L145.108 24.712ZM141.508 34.888L140.826 35.6191L140.837 35.63L140.849 35.6406L141.508 34.888ZM141.508 32.848L140.877 32.0719L140.851 32.0935L140.826 32.1169L141.508 32.848ZM143.26 32.848L143.918 32.0954L143.915 32.0923L143.26 32.848ZM143.26 34.888L142.601 34.1354L142.589 34.146L142.578 34.1569L143.26 34.888ZM142.588 18.92C144.036 18.92 144.903 19.2413 145.393 19.6898L146.743 18.2142C145.729 17.2867 144.276 16.92 142.588 16.92V18.92ZM145.393 19.6898C145.856 20.1134 146.196 20.882 146.196 22.24H148.196C148.196 20.59 147.784 19.1666 146.743 18.2142L145.393 19.6898ZM146.196 22.24V31H148.196V22.24H146.196ZM147.196 30H145.66V32H147.196V30ZM146.636 30.7817L146.228 28.9577L144.276 29.3943L144.684 31.2183L146.636 30.7817ZM145.252 28.176H145.156V30.176H145.252V28.176ZM144.372 28.5546C144.044 28.9686 143.712 29.3048 143.379 29.5711L144.629 31.1329C145.096 30.7592 145.532 30.3114 145.939 29.7974L144.372 28.5546ZM143.383 29.568C143.111 29.783 142.785 29.9501 142.389 30.0613L142.931 31.9867C143.559 31.8099 144.128 31.529 144.625 31.136L143.383 29.568ZM142.381 30.0637C142.003 30.1733 141.496 30.24 140.836 30.24V32.24C141.616 32.24 142.324 32.1627 142.939 31.9843L142.381 30.0637ZM140.836 30.24C140.188 30.24 139.63 30.1257 139.147 29.9153L138.348 31.7487C139.114 32.0823 139.948 32.24 140.836 32.24V30.24ZM139.156 29.9192C138.727 29.7273 138.4 29.4432 138.155 29.0518L136.461 30.1162C136.919 30.8448 137.552 31.3927 138.34 31.7448L139.156 29.9192ZM138.161 29.0625C137.929 28.6819 137.78 28.1547 137.78 27.424H135.78C135.78 28.4212 135.983 29.3341 136.455 30.1054L138.161 29.0625ZM137.78 27.424C137.78 26.4553 138.136 25.7891 138.856 25.2979L137.728 23.646C136.432 24.5309 135.78 25.8327 135.78 27.424H137.78ZM138.864 25.2918C139.636 24.7528 140.955 24.3813 142.978 24.3195L142.917 22.3205C140.749 22.3867 138.964 22.7832 137.719 23.6522L138.864 25.2918ZM142.981 24.3195L145.165 24.2475L145.099 22.2485L142.915 22.3205L142.981 24.3195ZM146.132 23.248V22.48H144.132V23.248H146.132ZM146.132 22.48C146.132 21.3179 145.89 20.2085 145.103 19.5034L143.768 20.9926C143.91 21.1195 144.132 21.4981 144.132 22.48H146.132ZM145.103 19.5034C144.399 18.8716 143.473 18.624 142.468 18.624V20.624C143.159 20.624 143.545 20.7924 143.768 20.9926L145.103 19.5034ZM142.468 18.624C141.691 18.624 140.941 18.7446 140.224 18.9898L140.872 20.8822C141.371 20.7114 141.901 20.624 142.468 20.624V18.624ZM140.247 18.9824C139.596 19.1878 138.983 19.4293 138.408 19.7082L139.28 21.5078C139.761 21.2747 140.283 21.0682 140.849 20.8896L140.247 18.9824ZM139.769 20.2294L139.121 18.6454L137.27 19.4026L137.918 20.9866L139.769 20.2294ZM138.673 19.9029C139.15 19.6438 139.739 19.4137 140.449 19.2212L139.926 17.2908C139.101 17.5143 138.361 17.7962 137.719 18.1451L138.673 19.9029ZM140.468 19.216C141.141 19.0196 141.847 18.92 142.588 18.92V16.92C141.665 16.92 140.77 17.0444 139.908 17.296L140.468 19.216ZM143.172 23.7848C141.548 23.8498 140.173 24.1074 139.293 24.7397L140.459 26.3643C140.826 26.1006 141.676 25.8462 143.252 25.7832L143.172 23.7848ZM139.283 24.7469C138.396 25.4004 137.964 26.344 137.964 27.448H139.964C139.964 26.92 140.14 26.5996 140.469 26.3571L139.283 24.7469ZM137.964 27.448C137.964 28.3712 138.25 29.2394 138.998 29.8214L140.226 28.2426C140.11 28.1526 139.964 27.9648 139.964 27.448H137.964ZM139.012 29.832C139.669 30.3252 140.462 30.536 141.316 30.536V28.536C140.794 28.536 140.45 28.4108 140.212 28.232L139.012 29.832ZM141.316 30.536C142.595 30.536 143.735 30.1835 144.663 29.4204L143.393 27.8756C142.881 28.2965 142.213 28.536 141.316 28.536V30.536ZM144.673 29.412C145.686 28.557 146.108 27.3048 146.108 25.864H144.108C144.108 26.9192 143.81 27.523 143.383 27.884L144.673 29.412ZM146.108 25.864V24.712H144.108V25.864H146.108ZM145.07 23.7127L143.174 23.7847L143.25 25.7833L145.146 25.7113L145.07 23.7127ZM142.396 34.224C142.305 34.224 142.243 34.2021 142.166 34.1354L140.849 35.6406C141.285 36.0219 141.814 36.224 142.396 36.224V34.224ZM142.19 34.1569C142.197 34.1632 142.191 34.1626 142.18 34.1317C142.167 34.0952 142.148 34.0174 142.148 33.88H140.148C140.148 34.5005 140.317 35.1447 140.826 35.6191L142.19 34.1569ZM142.148 33.88C142.148 33.7309 142.168 33.645 142.182 33.6034C142.195 33.5674 142.201 33.5687 142.19 33.5791L140.826 32.1169C140.311 32.5974 140.148 33.256 140.148 33.88H142.148ZM142.138 33.6241C142.213 33.5639 142.285 33.536 142.396 33.536V31.536C141.835 31.536 141.315 31.7161 140.877 32.0719L142.138 33.6241ZM142.396 33.536C142.506 33.536 142.558 33.5629 142.605 33.6037L143.915 32.0923C143.482 31.7171 142.957 31.536 142.396 31.536V33.536ZM142.601 33.6006C142.595 33.5947 142.6 33.5938 142.611 33.6227C142.624 33.658 142.644 33.7369 142.644 33.88H144.644C144.644 33.2375 144.462 32.5714 143.918 32.0954L142.601 33.6006ZM142.644 33.88C142.644 34.0112 142.625 34.0818 142.613 34.112C142.608 34.1264 142.604 34.1325 142.603 34.1335C142.603 34.1343 142.602 34.1345 142.601 34.1354L143.918 35.6406C144.455 35.171 144.644 34.5194 144.644 33.88H142.644ZM142.578 34.1569C142.527 34.2037 142.485 34.224 142.396 34.224V36.224C142.979 36.224 143.512 36.0203 143.942 35.6191L142.578 34.1569ZM150.641 15.28L151.348 14.5729L150.641 15.28ZM150.641 13.168L151.348 13.8751L150.641 13.168ZM152.705 13.168L151.978 13.8546L151.988 13.865L151.998 13.8751L152.705 13.168ZM152.705 15.28L151.998 14.5729L151.988 14.583L151.978 14.5934L152.705 15.28ZM152.753 17.848H153.753V16.848H152.753V17.848ZM152.753 31V32H153.753V31H152.753ZM150.569 31H149.569V32H150.569V31ZM150.569 17.848V16.848H149.569V17.848H150.569ZM151.697 14.712C151.54 14.712 151.444 14.6689 151.348 14.5729L149.934 15.9871C150.414 16.4671 151.022 16.712 151.697 16.712V14.712ZM151.348 14.5729C151.252 14.4769 151.209 14.3811 151.209 14.224H149.209C149.209 14.8989 149.454 15.5071 149.934 15.9871L151.348 14.5729ZM151.209 14.224C151.209 14.0669 151.252 13.9711 151.348 13.8751L149.934 12.4609C149.454 12.9409 149.209 13.5491 149.209 14.224H151.209ZM151.348 13.8751C151.444 13.7791 151.54 13.736 151.697 13.736V11.736C151.022 11.736 150.414 11.9809 149.934 12.4609L151.348 13.8751ZM151.697 13.736C151.825 13.736 151.897 13.7688 151.978 13.8546L153.432 12.4814C152.969 11.9912 152.369 11.736 151.697 11.736V13.736ZM151.998 13.8751C152.094 13.9711 152.137 14.0669 152.137 14.224H154.137C154.137 13.5491 153.892 12.9409 153.412 12.4609L151.998 13.8751ZM152.137 14.224C152.137 14.3811 152.094 14.4769 151.998 14.5729L153.412 15.9871C153.892 15.5071 154.137 14.8989 154.137 14.224H152.137ZM151.978 14.5934C151.897 14.6792 151.825 14.712 151.697 14.712V16.712C152.369 16.712 152.969 16.4568 153.432 15.9666L151.978 14.5934ZM151.753 17.848V31H153.753V17.848H151.753ZM152.753 30H150.569V32H152.753V30ZM151.569 31V17.848H149.569V31H151.569ZM150.569 18.848H152.753V16.848H150.569V18.848ZM162.058 20.848L162.938 21.3229L162.941 21.3172L162.058 20.848ZM164.29 18.472L163.786 17.6082L163.779 17.6119L164.29 18.472ZM170.362 18.352L169.883 19.23L169.895 19.2366L170.362 18.352ZM172.378 20.2L171.522 20.7171L173.378 23.789V20.2H172.378ZM172.378 13.24V12.24H171.378V13.24H172.378ZM174.586 13.24H175.586V12.24H174.586V13.24ZM174.586 31V32H175.586V31H174.586ZM172.378 31H171.378V32H172.378V31ZM172.378 28.528H173.378L171.502 28.0454L172.378 28.528ZM170.458 30.472L170.963 31.3353L170.975 31.3281L170.458 30.472ZM164.29 30.352L163.769 31.2057L163.775 31.2095L164.29 30.352ZM162.058 27.928L162.944 27.4645L162.058 27.928ZM170.146 20.128L169.634 20.9873L169.646 20.9944L169.658 21.0012L170.146 20.128ZM165.682 20.104L165.186 19.2358V19.2358L165.682 20.104ZM164.074 21.784L164.952 22.2615V22.2615L164.074 21.784ZM164.074 27.016L163.191 27.4856L163.195 27.4935L164.074 27.016ZM165.682 28.72L165.17 29.5793L165.178 29.5838L165.186 29.5882L165.682 28.72ZM170.146 28.72L170.642 29.5883L170.648 29.5845L170.146 28.72ZM171.778 27.016L172.656 27.4935L172.661 27.4856L171.778 27.016ZM162.242 24.376C162.242 23.169 162.485 22.1616 162.938 21.3229L161.178 20.3731C160.542 21.5504 160.242 22.895 160.242 24.376H162.242ZM162.941 21.3172C163.404 20.4457 164.023 19.7931 164.8 19.3321L163.779 17.6119C162.669 18.2709 161.8 19.2023 161.175 20.3788L162.941 21.3172ZM164.794 19.3358C165.591 18.8708 166.487 18.632 167.506 18.632V16.632C166.157 16.632 164.909 16.9532 163.786 17.6082L164.794 19.3358ZM167.506 18.632C168.366 18.632 169.153 18.8318 169.883 19.2299L170.841 17.4741C169.81 16.9122 168.693 16.632 167.506 16.632V18.632ZM169.895 19.2366C170.632 19.6253 171.162 20.1213 171.522 20.7171L173.234 19.6829C172.666 18.7427 171.851 18.0067 170.828 17.4674L169.895 19.2366ZM173.378 20.2V13.24H171.378V20.2H173.378ZM172.378 14.24H174.586V12.24H172.378V14.24ZM173.586 13.24V31H175.586V13.24H173.586ZM174.586 30H172.378V32H174.586V30ZM173.378 31V28.528H171.378V31H173.378ZM171.502 28.0454C171.163 28.6595 170.655 29.1848 169.941 29.6159L170.975 31.3281C171.957 30.7352 172.728 29.9645 173.254 29.0106L171.502 28.0454ZM169.953 29.6088C169.281 30.002 168.468 30.216 167.482 30.216V32.216C168.767 32.216 169.939 31.934 170.963 31.3352L169.953 29.6088ZM167.482 30.216C166.487 30.216 165.602 29.9731 164.804 29.4945L163.775 31.2095C164.897 31.8829 166.141 32.216 167.482 32.216V30.216ZM164.811 29.4984C164.031 29.0227 163.409 28.354 162.944 27.4645L161.172 28.3915C161.794 29.582 162.66 30.5293 163.769 31.2056L164.811 29.4984ZM162.944 27.4645C162.484 26.5854 162.242 25.564 162.242 24.376H160.242C160.242 25.844 160.543 27.1906 161.172 28.3915L162.944 27.4645ZM173.378 24.4C173.378 23.2719 173.149 22.2379 172.656 21.3305L170.899 22.2855C171.206 22.8501 171.378 23.5441 171.378 24.4H173.378ZM172.656 21.3305C172.172 20.4392 171.497 19.7369 170.633 19.2548L169.658 21.0012C170.171 21.2871 170.583 21.7048 170.899 22.2855L172.656 21.3305ZM170.657 19.2687C169.824 18.7725 168.902 18.528 167.914 18.528V20.528C168.558 20.528 169.124 20.6835 169.634 20.9873L170.657 19.2687ZM167.914 18.528C166.933 18.528 166.017 18.7607 165.186 19.2358L166.178 20.9722C166.69 20.6793 167.262 20.528 167.914 20.528V18.528ZM165.186 19.2358C164.339 19.7195 163.676 20.4212 163.195 21.3065L164.952 22.2615C165.271 21.6748 165.68 21.2565 166.178 20.9722L165.186 19.2358ZM163.195 21.3065C162.702 22.2139 162.474 23.2479 162.474 24.376H164.474C164.474 23.5201 164.645 22.8261 164.952 22.2615L163.195 21.3065ZM162.474 24.376C162.474 25.5178 162.701 26.5647 163.191 27.4856L164.957 26.5464C164.646 25.9633 164.474 25.2502 164.474 24.376H162.474ZM163.195 27.4935C163.675 28.3758 164.333 29.0808 165.17 29.5793L166.193 27.8607C165.687 27.5592 165.273 27.1282 164.952 26.5385L163.195 27.4935ZM165.186 29.5882C166.017 30.0633 166.933 30.296 167.914 30.296V28.296C167.262 28.296 166.69 28.1447 166.178 27.8518L165.186 29.5882ZM167.914 30.296C168.894 30.296 169.81 30.0633 170.642 29.5882L169.65 27.8518C169.137 28.1447 168.565 28.296 167.914 28.296V30.296ZM170.648 29.5845C171.503 29.0875 172.174 28.3817 172.656 27.4935L170.899 26.5385C170.582 27.1223 170.164 27.5525 169.643 27.8555L170.648 29.5845ZM172.661 27.4856C173.149 26.5669 173.378 25.5287 173.378 24.4H171.378C171.378 25.2553 171.206 25.9611 170.895 26.5464L172.661 27.4856ZM177.94 15.28L178.648 14.5729L177.94 15.28ZM177.94 13.168L178.648 13.8751L177.94 13.168ZM180.004 13.168L179.277 13.8546L179.287 13.865L179.297 13.8751L180.004 13.168ZM180.004 15.28L179.297 14.5729L179.287 14.583L179.277 14.5934L180.004 15.28ZM180.052 17.848H181.052V16.848H180.052V17.848ZM180.052 31V32H181.052V31H180.052ZM177.868 31H176.868V32H177.868V31ZM177.868 17.848V16.848H176.868V17.848H177.868ZM178.996 14.712C178.839 14.712 178.744 14.6689 178.648 14.5729L177.233 15.9871C177.713 16.4671 178.322 16.712 178.996 16.712V14.712ZM178.648 14.5729C178.552 14.4769 178.508 14.3811 178.508 14.224H176.508C176.508 14.8989 176.753 15.5071 177.233 15.9871L178.648 14.5729ZM178.508 14.224C178.508 14.0669 178.552 13.9711 178.648 13.8751L177.233 12.4609C176.753 12.9409 176.508 13.5491 176.508 14.224H178.508ZM178.648 13.8751C178.744 13.7791 178.839 13.736 178.996 13.736V11.736C178.322 11.736 177.713 11.9809 177.233 12.4609L178.648 13.8751ZM178.996 13.736C179.124 13.736 179.196 13.7688 179.277 13.8546L180.731 12.4814C180.268 11.9912 179.669 11.736 178.996 11.736V13.736ZM179.297 13.8751C179.393 13.9711 179.436 14.0669 179.436 14.224H181.436C181.436 13.5491 181.192 12.9409 180.712 12.4609L179.297 13.8751ZM179.436 14.224C179.436 14.3811 179.393 14.4769 179.297 14.5729L180.712 15.9871C181.192 15.5071 181.436 14.8989 181.436 14.224H179.436ZM179.277 14.5934C179.196 14.6792 179.124 14.712 178.996 14.712V16.712C179.669 16.712 180.268 16.4568 180.731 15.9666L179.277 14.5934ZM179.052 17.848V31H181.052V17.848H179.052ZM180.052 30H177.868V32H180.052V30ZM178.868 31V17.848H176.868V31H178.868ZM177.868 18.848H180.052V16.848H177.868V18.848ZM191.359 18.616L190.837 19.4689L190.844 19.4735L191.359 18.616ZM193.183 20.656L192.279 21.0834L192.283 21.0933L192.288 21.1032L193.183 20.656ZM193.831 24.976V25.976H194.831V24.976H193.831ZM185.023 24.976V23.976H184L184.023 24.998L185.023 24.976ZM186.127 28.312L185.39 28.9877L185.397 28.9957L185.404 29.0036L186.127 28.312ZM191.287 29.224L191.512 30.1984L191.52 30.1963L191.529 30.1941L191.287 29.224ZM193.255 28.552H194.255V27.0355L192.861 27.6329L193.255 28.552ZM193.255 30.4L193.657 31.3156L194.255 31.0531V30.4H193.255ZM191.311 31.024L191.115 30.0434L191.103 30.0458L191.091 30.0484L191.311 31.024ZM185.791 30.496L185.319 31.378L185.326 31.3812L185.791 30.496ZM183.607 28.288L182.718 28.7466L182.723 28.7553L182.727 28.7638L183.607 28.288ZM183.535 21.04L182.632 20.61L182.626 20.6219L183.535 21.04ZM185.527 18.712L184.994 17.8657L184.987 17.8703L185.527 18.712ZM186.103 20.608L185.36 19.938L185.359 19.939L186.103 20.608ZM185.071 23.296L184.075 23.1992L183.969 24.296H185.071V23.296ZM191.623 23.296V24.296H192.623V23.296H191.623ZM191.287 21.376L190.362 21.7567V21.7567L191.287 21.376ZM190.255 20.104L189.673 20.9177L189.69 20.9294L189.707 20.9405L190.255 20.104ZM189.463 12.616L190.341 12.1371L190.056 11.616H189.463V12.616ZM190.279 13.816L189.492 14.4338L189.505 14.4494L189.517 14.4645L190.279 13.816ZM191.407 15.112L190.659 15.7764L190.672 15.791L190.686 15.8051L191.407 15.112ZM192.463 16.192H193.463V15.7778L193.17 15.4849L192.463 16.192ZM192.463 16.456V17.456H193.463V16.456H192.463ZM190.975 16.456L190.451 17.3077L190.692 17.456H190.975V16.456ZM189.679 15.52L189.028 16.2793L189.036 16.2861L189.044 16.2927L189.679 15.52ZM188.359 14.296L189.066 13.5889L188.359 12.8818L187.652 13.5889L188.359 14.296ZM187.063 15.496L186.414 14.7348V14.7348L187.063 15.496ZM185.791 16.456V17.456H186.089L186.338 17.293L185.791 16.456ZM184.351 16.456H183.351V17.456H184.351V16.456ZM184.351 16.192L183.626 15.5032L183.351 15.7927V16.192H184.351ZM185.359 15.088L184.624 14.4097L184.617 14.4175L184.61 14.4254L185.359 15.088ZM186.463 13.816L187.238 14.4477L187.244 14.4408L187.249 14.4338L186.463 13.816ZM187.303 12.616V11.616H186.732L186.442 12.1073L187.303 12.616ZM187.831 34.888L187.148 35.6191L187.16 35.63L187.172 35.6406L187.831 34.888ZM187.831 32.848L187.2 32.0719L187.173 32.0935L187.148 32.1169L187.831 32.848ZM189.583 32.848L190.241 32.0954L190.238 32.0923L189.583 32.848ZM189.583 34.888L188.924 34.1354L188.912 34.146L188.9 34.1569L189.583 34.888ZM188.527 18.896C189.484 18.896 190.239 19.1028 190.837 19.4689L191.881 17.7631C190.911 17.1692 189.778 16.896 188.527 16.896V18.896ZM190.844 19.4735C191.467 19.8472 191.943 20.3739 192.279 21.0834L194.087 20.2286C193.59 19.1781 192.85 18.3448 191.873 17.7585L190.844 19.4735ZM192.288 21.1032C192.638 21.8023 192.831 22.6592 192.831 23.704H194.831C194.831 22.4128 194.592 21.2377 194.077 20.2088L192.288 21.1032ZM192.831 23.704V24.976H194.831V23.704H192.831ZM193.831 23.976H185.023V25.976H193.831V23.976ZM184.023 24.998C184.058 26.6004 184.467 27.9808 185.39 28.9877L186.864 27.6363C186.379 27.1072 186.051 26.2636 186.022 24.954L184.023 24.998ZM185.404 29.0036C186.355 29.9962 187.641 30.44 189.127 30.44V28.44C188.053 28.44 187.339 28.1318 186.849 27.6204L185.404 29.0036ZM189.127 30.44C189.999 30.44 190.797 30.3633 191.512 30.1984L191.062 28.2496C190.528 28.3727 189.887 28.44 189.127 28.44V30.44ZM191.529 30.1941C192.226 30.0199 192.933 29.7779 193.649 29.4711L192.861 27.6329C192.233 27.9021 191.627 28.1081 191.044 28.2539L191.529 30.1941ZM192.255 28.552V30.4H194.255V28.552H192.255ZM192.853 29.4844C192.256 29.7461 191.677 29.9309 191.115 30.0434L191.507 32.0046C192.224 31.8611 192.941 31.6299 193.657 31.3156L192.853 29.4844ZM191.091 30.0484C190.543 30.1718 189.86 30.24 189.031 30.24V32.24C189.961 32.24 190.799 32.1642 191.53 31.9996L191.091 30.0484ZM189.031 30.24C187.954 30.24 187.037 30.0214 186.256 29.6108L185.326 31.3812C186.432 31.9626 187.676 32.24 189.031 32.24V30.24ZM186.262 29.6141C185.517 29.2157 184.926 28.6256 184.486 27.8122L182.727 28.7638C183.343 29.9024 184.209 30.7843 185.319 31.3779L186.262 29.6141ZM184.495 27.8294C184.074 27.0128 183.839 25.9712 183.839 24.664H181.839C181.839 26.2048 182.116 27.5792 182.718 28.7466L184.495 27.8294ZM183.839 24.664C183.839 23.3628 184.053 22.3047 184.443 21.4581L182.626 20.6219C182.088 21.7913 181.839 23.1492 181.839 24.664H183.839ZM184.438 21.4699C184.846 20.6116 185.392 19.9863 186.067 19.5537L184.987 17.8703C183.965 18.5257 183.183 19.4524 182.632 20.6101L184.438 21.4699ZM186.06 19.5582C186.746 19.1258 187.557 18.896 188.527 18.896V16.896C187.224 16.896 186.035 17.2102 184.994 17.8658L186.06 19.5582ZM188.503 18.624C187.256 18.624 186.17 19.0413 185.36 19.938L186.845 21.278C187.22 20.8627 187.734 20.624 188.503 20.624V18.624ZM185.359 19.939C184.598 20.7846 184.201 21.9069 184.075 23.1992L186.066 23.3928C186.164 22.3811 186.455 21.7114 186.846 21.277L185.359 19.939ZM185.071 24.296H191.623V22.296H185.071V24.296ZM192.623 23.296C192.623 22.461 192.496 21.6862 192.211 20.9952L190.362 21.7567C190.525 22.1538 190.623 22.659 190.623 23.296H192.623ZM192.211 20.9952C191.916 20.2768 191.446 19.6889 190.803 19.2675L189.707 20.9405C189.992 21.1271 190.21 21.3872 190.362 21.7567L192.211 20.9952ZM190.836 19.2903C190.173 18.8167 189.367 18.624 188.503 18.624V20.624C189.078 20.624 189.44 20.7513 189.673 20.9177L190.836 19.2903ZM188.585 13.0949C188.812 13.5112 189.119 13.9587 189.492 14.4338L191.065 13.1982C190.734 12.7773 190.497 12.4248 190.341 12.1371L188.585 13.0949ZM189.517 14.4645C189.89 14.9019 190.271 15.3392 190.659 15.7764L192.154 14.4476C191.775 14.0208 191.403 13.5941 191.04 13.1675L189.517 14.4645ZM190.686 15.8051C191.089 16.2243 191.446 16.5892 191.756 16.8991L193.17 15.4849C192.872 15.1868 192.524 14.8317 192.128 14.4189L190.686 15.8051ZM191.463 16.192V16.456H193.463V16.192H191.463ZM192.463 15.456H190.975V17.456H192.463V15.456ZM191.499 15.6043C191.128 15.376 190.733 15.0916 190.313 14.7473L189.044 16.2927C189.521 16.6844 189.99 17.024 190.451 17.3077L191.499 15.6043ZM190.329 14.7607C189.902 14.394 189.48 14.0034 189.066 13.5889L187.652 15.0031C188.101 15.4526 188.56 15.878 189.028 16.2793L190.329 14.7607ZM187.652 13.5889C187.237 14.0035 186.825 14.3853 186.414 14.7348L187.711 16.2572C188.165 15.8707 188.616 15.4525 189.066 15.0031L187.652 13.5889ZM186.414 14.7348C186.01 15.0792 185.62 15.3731 185.243 15.619L186.338 17.293C186.794 16.9949 187.251 16.6488 187.711 16.2572L186.414 14.7348ZM185.791 15.456H184.351V17.456H185.791V15.456ZM185.351 16.456V16.192H183.351V16.456H185.351ZM185.076 16.8807C185.39 16.5503 185.734 16.1733 186.108 15.7506L184.61 14.4254C184.248 14.8347 183.92 15.1937 183.626 15.5032L185.076 16.8807ZM186.093 15.7663C186.491 15.3354 186.873 14.8959 187.238 14.4477L185.687 13.1843C185.349 13.6001 184.994 14.0086 184.624 14.4097L186.093 15.7663ZM187.249 14.4338C187.619 13.9635 187.926 13.5262 188.164 13.1247L186.442 12.1073C186.263 12.4098 186.011 12.7725 185.676 13.1982L187.249 14.4338ZM187.303 13.616H189.463V11.616H187.303V13.616ZM188.719 34.224C188.628 34.224 188.565 34.2021 188.489 34.1354L187.172 35.6406C187.608 36.0219 188.137 36.224 188.719 36.224V34.224ZM188.513 34.1569C188.52 34.1632 188.513 34.1626 188.502 34.1317C188.489 34.0952 188.471 34.0174 188.471 33.88H186.471C186.471 34.5005 186.64 35.1447 187.148 35.6191L188.513 34.1569ZM188.471 33.88C188.471 33.7309 188.49 33.645 188.505 33.6034C188.517 33.5674 188.524 33.5687 188.513 33.5791L187.148 32.1169C186.634 32.5974 186.471 33.256 186.471 33.88H188.471ZM188.461 33.6241C188.535 33.5639 188.608 33.536 188.719 33.536V31.536C188.158 31.536 187.638 31.7161 187.2 32.0719L188.461 33.6241ZM188.719 33.536C188.829 33.536 188.881 33.5629 188.928 33.6037L190.238 32.0923C189.805 31.7171 189.28 31.536 188.719 31.536V33.536ZM188.924 33.6006C188.917 33.5947 188.923 33.5938 188.933 33.6227C188.947 33.658 188.967 33.7369 188.967 33.88H190.967C190.967 33.2375 190.785 32.5714 190.241 32.0954L188.924 33.6006ZM188.967 33.88C188.967 34.0112 188.948 34.0818 188.936 34.112C188.931 34.1264 188.927 34.1325 188.926 34.1335C188.925 34.1343 188.925 34.1345 188.924 34.1354L190.241 35.6406C190.778 35.171 190.967 34.5194 190.967 33.88H188.967ZM188.9 34.1569C188.85 34.2037 188.808 34.224 188.719 34.224V36.224C189.301 36.224 189.835 36.0203 190.265 35.6191L188.9 34.1569ZM206.802 19.072L206.1 19.7849L206.106 19.7906L206.802 19.072ZM208.29 31V32H209.29V31H208.29ZM206.13 31H205.13V32H206.13V31ZM205.146 20.56L204.414 21.2418L204.422 21.2501L205.146 20.56ZM199.698 20.584L198.975 19.8931L198.967 19.9017L199.698 20.584ZM198.69 31V32H199.69V31H198.69ZM196.506 31H195.506V32H196.506V31ZM196.506 17.848V16.848H195.506V17.848H196.506ZM198.69 17.848H199.69V16.848H198.69V17.848ZM198.69 19.72H197.69V23.1248L199.531 20.2608L198.69 19.72ZM200.442 18.16L200.002 17.2617L199.994 17.2656L200.442 18.16ZM202.914 18.608C204.294 18.608 205.324 19.0207 206.1 19.7848L207.503 18.3592C206.296 17.1713 204.733 16.608 202.914 16.608V18.608ZM206.106 19.7906C206.847 20.5073 207.29 21.6042 207.29 23.248H209.29C209.29 21.2438 208.74 19.5567 207.497 18.3534L206.106 19.7906ZM207.29 23.248V31H209.29V23.248H207.29ZM208.29 30H206.13V32H208.29V30ZM207.13 31V23.56H205.13V31H207.13ZM207.13 23.56C207.13 22.09 206.761 20.8049 205.869 19.8699L204.422 21.2501C204.842 21.6911 205.13 22.406 205.13 23.56H207.13ZM205.877 19.8783C204.998 18.9346 203.817 18.504 202.458 18.504V20.504C203.371 20.504 203.981 20.7774 204.414 21.2417L205.877 19.8783ZM202.458 18.504C201.079 18.504 199.881 18.9443 198.975 19.8931L200.421 21.2749C200.89 20.7837 201.532 20.504 202.458 20.504V18.504ZM198.967 19.9017C198.063 20.8695 197.69 22.1998 197.69 23.728H199.69C199.69 22.5042 199.988 21.7385 200.429 21.2663L198.967 19.9017ZM197.69 23.728V31H199.69V23.728H197.69ZM198.69 30H196.506V32H198.69V30ZM197.506 31V17.848H195.506V31H197.506ZM196.506 18.848H198.69V16.848H196.506V18.848ZM197.69 17.848V19.72H199.69V17.848H197.69ZM199.531 20.2608C199.863 19.7446 200.308 19.3446 200.889 19.0544L199.994 17.2656C199.103 17.7114 198.381 18.3514 197.848 19.1792L199.531 20.2608ZM200.881 19.0582C201.487 18.7618 202.159 18.608 202.914 18.608V16.608C201.876 16.608 200.9 16.8222 200.002 17.2618L200.881 19.0582Z" fill="black" fill-opacity="0.5" mask="url(#path-3-inside-1_650_732)"/>
</svg>
