<svg width="201" height="49" viewBox="0 0 201 49" fill="none" xmlns="http://www.w3.org/2000/svg">
<circle cx="9" cy="24" r="9" fill="#3B9D39"/>
<path d="M192.117 49H65.9709C61.5291 49 57.0874 48.02 53.534 46.06L20.665 27.93C17.1117 25.97 17.1117 23.03 20.665 21.07L53.534 2.94C57.0874 0.979999 61.5291 0 65.9709 0H192.117C197.447 0 201 1.96 201 4.9V44.1C201 47.04 197.447 49 192.117 49Z" fill="#019255" fill-opacity="0.5"/>
<mask id="path-3-inside-1_650_730" fill="white">
<path d="M74.3576 31.224H80.2136V33H72.1736V16.272H74.3576V31.224ZM83.2529 17.712C82.8369 17.712 82.4849 17.568 82.1969 17.28C81.9089 16.992 81.7649 16.64 81.7649 16.224C81.7649 15.808 81.9089 15.456 82.1969 15.168C82.4849 14.88 82.8369 14.736 83.2529 14.736C83.6529 14.736 83.9889 14.88 84.2609 15.168C84.5489 15.456 84.6929 15.808 84.6929 16.224C84.6929 16.64 84.5489 16.992 84.2609 17.28C83.9889 17.568 83.6529 17.712 83.2529 17.712ZM84.3089 19.848V33H82.1249V19.848H84.3089ZM99.6232 25.92C99.6232 26.336 99.5992 26.776 99.5512 27.24H89.0392C89.1192 28.536 89.5592 29.552 90.3592 30.288C91.1752 31.008 92.1592 31.368 93.3112 31.368C94.2552 31.368 95.0392 31.152 95.6632 30.72C96.3032 30.272 96.7512 29.68 97.0072 28.944H99.3592C99.0072 30.208 98.3032 31.24 97.2472 32.04C96.1912 32.824 94.8792 33.216 93.3112 33.216C92.0632 33.216 90.9432 32.936 89.9512 32.376C88.9752 31.816 88.2072 31.024 87.6472 30C87.0872 28.96 86.8072 27.76 86.8072 26.4C86.8072 25.04 87.0792 23.848 87.6232 22.824C88.1672 21.8 88.9272 21.016 89.9032 20.472C90.8952 19.912 92.0312 19.632 93.3112 19.632C94.5592 19.632 95.6632 19.904 96.6232 20.448C97.5832 20.992 98.3192 21.744 98.8312 22.704C99.3592 23.648 99.6232 24.72 99.6232 25.92ZM97.3672 25.464C97.3672 24.632 97.1832 23.92 96.8152 23.328C96.4472 22.72 95.9432 22.264 95.3032 21.96C94.6792 21.64 93.9832 21.48 93.2152 21.48C92.1112 21.48 91.1672 21.832 90.3832 22.536C89.6152 23.24 89.1752 24.216 89.0632 25.464H97.3672ZM93.2392 16.632L89.9032 18.672V16.944L93.2392 14.952L96.5512 16.944V18.672L93.2392 16.632ZM108.506 19.608C110.106 19.608 111.402 20.096 112.394 21.072C113.386 22.032 113.882 23.424 113.882 25.248V33H111.722V25.56C111.722 24.248 111.394 23.248 110.738 22.56C110.082 21.856 109.186 21.504 108.05 21.504C106.898 21.504 105.978 21.864 105.29 22.584C104.618 23.304 104.282 24.352 104.282 25.728V33H102.098V19.848H104.282V21.72C104.714 21.048 105.298 20.528 106.034 20.16C106.786 19.792 107.61 19.608 108.506 19.608ZM129.56 19.608C130.552 19.608 131.448 19.824 132.248 20.256C133.048 20.672 133.672 21.304 134.12 22.152C134.584 23 134.816 24.032 134.816 25.248V33H132.656V25.56C132.656 24.248 132.328 23.248 131.672 22.56C131.016 21.856 130.12 21.504 128.984 21.504C127.832 21.504 126.912 21.864 126.224 22.584C125.552 23.304 125.216 24.352 125.216 25.728V33H123.032V15.24H125.216V21.72C125.648 21.048 126.24 20.528 126.992 20.16C127.76 19.792 128.616 19.608 129.56 19.608ZM143.136 19.896C144.24 19.896 145.184 20.136 145.968 20.616C146.768 21.096 147.376 21.776 147.792 22.656C148.224 23.52 148.44 24.536 148.44 25.704V26.976H139.632C139.664 28.432 140.032 29.544 140.736 30.312C141.456 31.064 142.456 31.44 143.736 31.44C144.552 31.44 145.272 31.368 145.896 31.224C146.536 31.064 147.192 30.84 147.864 30.552V32.4C147.208 32.688 146.56 32.896 145.92 33.024C145.28 33.168 144.52 33.24 143.64 33.24C142.424 33.24 141.344 32.992 140.4 32.496C139.472 32 138.744 31.264 138.216 30.288C137.704 29.296 137.448 28.088 137.448 26.664C137.448 25.256 137.68 24.048 138.144 23.04C138.624 22.032 139.288 21.256 140.136 20.712C141 20.168 142 19.896 143.136 19.896ZM143.112 21.624C142.104 21.624 141.304 21.952 140.712 22.608C140.136 23.248 139.792 24.144 139.68 25.296H146.232C146.232 24.56 146.12 23.92 145.896 23.376C145.672 22.832 145.328 22.408 144.864 22.104C144.416 21.784 143.832 21.624 143.112 21.624ZM144.072 14.616C144.264 14.968 144.536 15.368 144.888 15.816C145.256 16.248 145.632 16.68 146.016 17.112C146.416 17.528 146.768 17.888 147.072 18.192V18.456H145.584C145.168 18.2 144.736 17.888 144.288 17.52C143.84 17.136 143.4 16.728 142.968 16.296C142.536 16.728 142.104 17.128 141.672 17.496C141.24 17.864 140.816 18.184 140.4 18.456H138.96V18.192C139.264 17.872 139.6 17.504 139.968 17.088C140.352 16.672 140.72 16.248 141.072 15.816C141.424 15.368 141.704 14.968 141.912 14.616H144.072ZM143.328 37.224C142.992 37.224 142.696 37.112 142.44 36.888C142.2 36.664 142.08 36.328 142.08 35.88C142.08 35.416 142.2 35.072 142.44 34.848C142.696 34.64 142.992 34.536 143.328 34.536C143.664 34.536 143.952 34.64 144.192 34.848C144.448 35.072 144.576 35.416 144.576 35.88C144.576 36.328 144.448 36.664 144.192 36.888C143.952 37.112 143.664 37.224 143.328 37.224Z"/>
</mask>
<path d="M74.3576 31.224H80.2136V33H72.1736V16.272H74.3576V31.224ZM83.2529 17.712C82.8369 17.712 82.4849 17.568 82.1969 17.28C81.9089 16.992 81.7649 16.64 81.7649 16.224C81.7649 15.808 81.9089 15.456 82.1969 15.168C82.4849 14.88 82.8369 14.736 83.2529 14.736C83.6529 14.736 83.9889 14.88 84.2609 15.168C84.5489 15.456 84.6929 15.808 84.6929 16.224C84.6929 16.64 84.5489 16.992 84.2609 17.28C83.9889 17.568 83.6529 17.712 83.2529 17.712ZM84.3089 19.848V33H82.1249V19.848H84.3089ZM99.6232 25.92C99.6232 26.336 99.5992 26.776 99.5512 27.24H89.0392C89.1192 28.536 89.5592 29.552 90.3592 30.288C91.1752 31.008 92.1592 31.368 93.3112 31.368C94.2552 31.368 95.0392 31.152 95.6632 30.72C96.3032 30.272 96.7512 29.68 97.0072 28.944H99.3592C99.0072 30.208 98.3032 31.24 97.2472 32.04C96.1912 32.824 94.8792 33.216 93.3112 33.216C92.0632 33.216 90.9432 32.936 89.9512 32.376C88.9752 31.816 88.2072 31.024 87.6472 30C87.0872 28.96 86.8072 27.76 86.8072 26.4C86.8072 25.04 87.0792 23.848 87.6232 22.824C88.1672 21.8 88.9272 21.016 89.9032 20.472C90.8952 19.912 92.0312 19.632 93.3112 19.632C94.5592 19.632 95.6632 19.904 96.6232 20.448C97.5832 20.992 98.3192 21.744 98.8312 22.704C99.3592 23.648 99.6232 24.72 99.6232 25.92ZM97.3672 25.464C97.3672 24.632 97.1832 23.92 96.8152 23.328C96.4472 22.72 95.9432 22.264 95.3032 21.96C94.6792 21.64 93.9832 21.48 93.2152 21.48C92.1112 21.48 91.1672 21.832 90.3832 22.536C89.6152 23.24 89.1752 24.216 89.0632 25.464H97.3672ZM93.2392 16.632L89.9032 18.672V16.944L93.2392 14.952L96.5512 16.944V18.672L93.2392 16.632ZM108.506 19.608C110.106 19.608 111.402 20.096 112.394 21.072C113.386 22.032 113.882 23.424 113.882 25.248V33H111.722V25.56C111.722 24.248 111.394 23.248 110.738 22.56C110.082 21.856 109.186 21.504 108.05 21.504C106.898 21.504 105.978 21.864 105.29 22.584C104.618 23.304 104.282 24.352 104.282 25.728V33H102.098V19.848H104.282V21.72C104.714 21.048 105.298 20.528 106.034 20.16C106.786 19.792 107.61 19.608 108.506 19.608ZM129.56 19.608C130.552 19.608 131.448 19.824 132.248 20.256C133.048 20.672 133.672 21.304 134.12 22.152C134.584 23 134.816 24.032 134.816 25.248V33H132.656V25.56C132.656 24.248 132.328 23.248 131.672 22.56C131.016 21.856 130.12 21.504 128.984 21.504C127.832 21.504 126.912 21.864 126.224 22.584C125.552 23.304 125.216 24.352 125.216 25.728V33H123.032V15.24H125.216V21.72C125.648 21.048 126.24 20.528 126.992 20.16C127.76 19.792 128.616 19.608 129.56 19.608ZM143.136 19.896C144.24 19.896 145.184 20.136 145.968 20.616C146.768 21.096 147.376 21.776 147.792 22.656C148.224 23.52 148.44 24.536 148.44 25.704V26.976H139.632C139.664 28.432 140.032 29.544 140.736 30.312C141.456 31.064 142.456 31.44 143.736 31.44C144.552 31.44 145.272 31.368 145.896 31.224C146.536 31.064 147.192 30.84 147.864 30.552V32.4C147.208 32.688 146.56 32.896 145.92 33.024C145.28 33.168 144.52 33.24 143.64 33.24C142.424 33.24 141.344 32.992 140.4 32.496C139.472 32 138.744 31.264 138.216 30.288C137.704 29.296 137.448 28.088 137.448 26.664C137.448 25.256 137.68 24.048 138.144 23.04C138.624 22.032 139.288 21.256 140.136 20.712C141 20.168 142 19.896 143.136 19.896ZM143.112 21.624C142.104 21.624 141.304 21.952 140.712 22.608C140.136 23.248 139.792 24.144 139.68 25.296H146.232C146.232 24.56 146.12 23.92 145.896 23.376C145.672 22.832 145.328 22.408 144.864 22.104C144.416 21.784 143.832 21.624 143.112 21.624ZM144.072 14.616C144.264 14.968 144.536 15.368 144.888 15.816C145.256 16.248 145.632 16.68 146.016 17.112C146.416 17.528 146.768 17.888 147.072 18.192V18.456H145.584C145.168 18.2 144.736 17.888 144.288 17.52C143.84 17.136 143.4 16.728 142.968 16.296C142.536 16.728 142.104 17.128 141.672 17.496C141.24 17.864 140.816 18.184 140.4 18.456H138.96V18.192C139.264 17.872 139.6 17.504 139.968 17.088C140.352 16.672 140.72 16.248 141.072 15.816C141.424 15.368 141.704 14.968 141.912 14.616H144.072ZM143.328 37.224C142.992 37.224 142.696 37.112 142.44 36.888C142.2 36.664 142.08 36.328 142.08 35.88C142.08 35.416 142.2 35.072 142.44 34.848C142.696 34.64 142.992 34.536 143.328 34.536C143.664 34.536 143.952 34.64 144.192 34.848C144.448 35.072 144.576 35.416 144.576 35.88C144.576 36.328 144.448 36.664 144.192 36.888C143.952 37.112 143.664 37.224 143.328 37.224Z" fill="black"/>
<path d="M74.3576 31.224H73.3576V32.224H74.3576V31.224ZM80.2136 31.224H81.2136V30.224H80.2136V31.224ZM80.2136 33V34H81.2136V33H80.2136ZM72.1736 33H71.1736V34H72.1736V33ZM72.1736 16.272V15.272H71.1736V16.272H72.1736ZM74.3576 16.272H75.3576V15.272H74.3576V16.272ZM74.3576 32.224H80.2136V30.224H74.3576V32.224ZM79.2136 31.224V33H81.2136V31.224H79.2136ZM80.2136 32H72.1736V34H80.2136V32ZM73.1736 33V16.272H71.1736V33H73.1736ZM72.1736 17.272H74.3576V15.272H72.1736V17.272ZM73.3576 16.272V31.224H75.3576V16.272H73.3576ZM82.1969 17.28L82.904 16.5729L82.904 16.5729L82.1969 17.28ZM82.1969 15.168L82.904 15.8751L82.904 15.8751L82.1969 15.168ZM84.2609 15.168L83.5339 15.8546L83.5437 15.865L83.5538 15.8751L84.2609 15.168ZM84.2609 17.28L83.5538 16.5729L83.5437 16.583L83.5339 16.5934L84.2609 17.28ZM84.3089 19.848H85.3089V18.848H84.3089V19.848ZM84.3089 33V34H85.3089V33H84.3089ZM82.1249 33H81.1249V34H82.1249V33ZM82.1249 19.848V18.848H81.1249V19.848H82.1249ZM83.2529 16.712C83.0958 16.712 83.0001 16.6689 82.904 16.5729L81.4898 17.9871C81.9698 18.4671 82.5781 18.712 83.2529 18.712V16.712ZM82.904 16.5729C82.808 16.4769 82.7649 16.3811 82.7649 16.224H80.7649C80.7649 16.8989 81.0098 17.5071 81.4898 17.9871L82.904 16.5729ZM82.7649 16.224C82.7649 16.0669 82.808 15.9711 82.904 15.8751L81.4898 14.4609C81.0098 14.9409 80.7649 15.5491 80.7649 16.224H82.7649ZM82.904 15.8751C83.0001 15.7791 83.0958 15.736 83.2529 15.736V13.736C82.5781 13.736 81.9698 13.9809 81.4898 14.4609L82.904 15.8751ZM83.2529 15.736C83.3808 15.736 83.4529 15.7688 83.5339 15.8546L84.9879 14.4814C84.525 13.9912 83.925 13.736 83.2529 13.736V15.736ZM83.5538 15.8751C83.6498 15.9711 83.6929 16.0669 83.6929 16.224H85.6929C85.6929 15.5491 85.448 14.9409 84.968 14.4609L83.5538 15.8751ZM83.6929 16.224C83.6929 16.3811 83.6498 16.4769 83.5538 16.5729L84.968 17.9871C85.448 17.5071 85.6929 16.8989 85.6929 16.224H83.6929ZM83.5339 16.5934C83.4529 16.6792 83.3808 16.712 83.2529 16.712V18.712C83.925 18.712 84.525 18.4568 84.9879 17.9666L83.5339 16.5934ZM83.3089 19.848V33H85.3089V19.848H83.3089ZM84.3089 32H82.1249V34H84.3089V32ZM83.1249 33V19.848H81.1249V33H83.1249ZM82.1249 20.848H84.3089V18.848H82.1249V20.848ZM99.5512 27.24V28.24H100.453L100.546 27.3429L99.5512 27.24ZM89.0392 27.24V26.24H87.9756L88.0411 27.3016L89.0392 27.24ZM90.3592 30.288L89.6821 31.0239L89.6898 31.031L89.6976 31.0378L90.3592 30.288ZM95.6632 30.72L96.2324 31.5422L96.2366 31.5392L95.6632 30.72ZM97.0072 28.944V27.944H96.2962L96.0627 28.6155L97.0072 28.944ZM99.3592 28.944L100.323 29.2123L100.676 27.944H99.3592V28.944ZM97.2472 32.04L97.8433 32.8429L97.851 32.8371L97.2472 32.04ZM89.9512 32.376L89.4535 33.2434L89.4596 33.2468L89.9512 32.376ZM87.6472 30L86.7667 30.4741L86.7698 30.4798L87.6472 30ZM87.6232 22.824L88.5063 23.2932L88.5063 23.2932L87.6232 22.824ZM89.9032 20.472L90.3901 21.3455L90.3948 21.3428L89.9032 20.472ZM96.6232 20.448L96.1302 21.318L96.1302 21.318L96.6232 20.448ZM98.8312 22.704L97.9488 23.1746L97.9535 23.1834L97.9584 23.1922L98.8312 22.704ZM97.3672 25.464V26.464H98.3672V25.464H97.3672ZM96.8152 23.328L95.9596 23.8458L95.9659 23.8559L96.8152 23.328ZM95.3032 21.96L94.8469 22.8498L94.8604 22.8568L94.8741 22.8633L95.3032 21.96ZM90.3832 22.536L89.715 21.7919L89.7075 21.7988L90.3832 22.536ZM89.0632 25.464L88.0672 25.3746L87.9694 26.464H89.0632V25.464ZM93.2392 16.632L93.7636 15.7806L93.2411 15.4587L92.7175 15.7789L93.2392 16.632ZM89.9032 18.672H88.9032V20.4557L90.4249 19.5251L89.9032 18.672ZM89.9032 16.944L89.3905 16.0854L88.9032 16.3764V16.944H89.9032ZM93.2392 14.952L93.7546 14.0951L93.241 13.7862L92.7265 14.0934L93.2392 14.952ZM96.5512 16.944H97.5512V16.3785L97.0666 16.0871L96.5512 16.944ZM96.5512 18.672L96.0267 19.5234L97.5512 20.4624V18.672H96.5512ZM98.6232 25.92C98.6232 26.2978 98.6014 26.7033 98.5565 27.1371L100.546 27.3429C100.597 26.8487 100.623 26.3742 100.623 25.92H98.6232ZM99.5512 26.24H89.0392V28.24H99.5512V26.24ZM88.0411 27.3016C88.1337 28.802 88.656 30.0799 89.6821 31.0239L91.0362 29.5521C90.4624 29.0241 90.1047 28.27 90.0373 27.1784L88.0411 27.3016ZM89.6976 31.0378C90.7076 31.929 91.9311 32.368 93.3112 32.368V30.368C92.3873 30.368 91.6428 30.087 91.0208 29.5382L89.6976 31.0378ZM93.3112 32.368C94.4086 32.368 95.4043 32.1155 96.2324 31.5422L95.094 29.8978C94.6741 30.1885 94.1017 30.368 93.3112 30.368V32.368ZM96.2366 31.5392C97.0483 30.971 97.6265 30.2076 97.9517 29.2725L96.0627 28.6155C95.8759 29.1524 95.558 29.573 95.0897 29.9008L96.2366 31.5392ZM97.0072 29.944H99.3592V27.944H97.0072V29.944ZM98.3958 28.6757C98.1032 29.7267 97.5267 30.5737 96.6433 31.2429L97.851 32.8371C99.0797 31.9063 99.9112 30.6893 100.323 29.2123L98.3958 28.6757ZM96.6511 31.2371C95.7987 31.8699 94.707 32.216 93.3112 32.216V34.216C95.0514 34.216 96.5837 33.7781 97.8433 32.8429L96.6511 31.2371ZM93.3112 32.216C92.2185 32.216 91.2707 31.9726 90.4428 31.5052L89.4596 33.2468C90.6157 33.8994 91.9078 34.216 93.3112 34.216V32.216ZM90.4489 31.5086C89.6388 31.0439 88.9996 30.3888 88.5246 29.5202L86.7698 30.4798C87.4148 31.6592 88.3115 32.5881 89.4535 33.2434L90.4489 31.5086ZM88.5277 29.5259C88.0573 28.6523 87.8072 27.6198 87.8072 26.4H85.8072C85.8072 27.9002 86.1171 29.2677 86.7667 30.4741L88.5277 29.5259ZM87.8072 26.4C87.8072 25.1753 88.0513 24.1496 88.5063 23.2932L86.7401 22.3548C86.1071 23.5464 85.8072 24.9047 85.8072 26.4H87.8072ZM88.5063 23.2932C88.9635 22.4325 89.5889 21.792 90.39 21.3455L89.4163 19.5985C88.2655 20.24 87.3709 21.1675 86.7401 22.3548L88.5063 23.2932ZM90.3948 21.3428C91.2189 20.8776 92.1817 20.632 93.3112 20.632V18.632C91.8806 18.632 90.5714 18.9464 89.4116 19.6012L90.3948 21.3428ZM93.3112 20.632C94.4094 20.632 95.3394 20.8699 96.1302 21.318L97.1162 19.578C95.987 18.9381 94.709 18.632 93.3112 18.632V20.632ZM96.1302 21.318C96.9276 21.7699 97.5274 22.3845 97.9488 23.1746L99.7135 22.2334C99.1109 21.1035 98.2388 20.2141 97.1162 19.578L96.1302 21.318ZM97.9584 23.1922C98.3941 23.9711 98.6232 24.8718 98.6232 25.92H100.623C100.623 24.5682 100.324 23.3249 99.7039 22.2158L97.9584 23.1922ZM98.3672 25.464C98.3672 24.4819 98.1486 23.5789 97.6645 22.8001L95.9659 23.8559C96.2178 24.2611 96.3672 24.7821 96.3672 25.464H98.3672ZM97.6707 22.8102C97.2017 22.0353 96.5496 21.445 95.7322 21.0567L94.8741 22.8633C95.3367 23.083 95.6927 23.4047 95.9597 23.8458L97.6707 22.8102ZM95.7595 21.0702C94.9812 20.6711 94.1265 20.48 93.2152 20.48V22.48C93.8399 22.48 94.3772 22.6089 94.8469 22.8498L95.7595 21.0702ZM93.2152 20.48C91.8774 20.48 90.692 20.9147 89.7151 21.792L91.0513 23.28C91.6424 22.7493 92.3449 22.48 93.2152 22.48V20.48ZM89.7075 21.7988C88.7199 22.7041 88.1967 23.9314 88.0672 25.3746L90.0592 25.5534C90.1537 24.5006 90.5105 23.7759 91.0589 23.2732L89.7075 21.7988ZM89.0632 26.464H97.3672V24.464H89.0632V26.464ZM92.7175 15.7789L89.3815 17.8189L90.4249 19.5251L93.7609 17.4851L92.7175 15.7789ZM90.9032 18.672V16.944H88.9032V18.672H90.9032ZM90.4159 17.8026L93.7519 15.8106L92.7265 14.0934L89.3905 16.0854L90.4159 17.8026ZM92.7238 15.8089L96.0358 17.8009L97.0666 16.0871L93.7546 14.0951L92.7238 15.8089ZM95.5512 16.944V18.672H97.5512V16.944H95.5512ZM97.0756 17.8206L93.7636 15.7806L92.7147 17.4834L96.0267 19.5234L97.0756 17.8206ZM112.394 21.072L111.693 21.7849L111.699 21.7906L112.394 21.072ZM113.882 33V34H114.882V33H113.882ZM111.722 33H110.722V34H111.722V33ZM110.738 22.56L110.006 23.2418L110.014 23.2501L110.738 22.56ZM105.29 22.584L104.567 21.8931L104.559 21.9017L105.29 22.584ZM104.282 33V34H105.282V33H104.282ZM102.098 33H101.098V34H102.098V33ZM102.098 19.848V18.848H101.098V19.848H102.098ZM104.282 19.848H105.282V18.848H104.282V19.848ZM104.282 21.72H103.282V25.1248L105.123 22.2608L104.282 21.72ZM106.034 20.16L105.594 19.2617L105.587 19.2656L106.034 20.16ZM108.506 20.608C109.886 20.608 110.916 21.0207 111.693 21.7848L113.095 20.3592C111.888 19.1713 110.326 18.608 108.506 18.608V20.608ZM111.699 21.7906C112.439 22.5073 112.882 23.6042 112.882 25.248H114.882C114.882 23.2438 114.333 21.5567 113.089 20.3534L111.699 21.7906ZM112.882 25.248V33H114.882V25.248H112.882ZM113.882 32H111.722V34H113.882V32ZM112.722 33V25.56H110.722V33H112.722ZM112.722 25.56C112.722 24.09 112.353 22.8049 111.462 21.8699L110.014 23.2501C110.435 23.6911 110.722 24.406 110.722 25.56H112.722ZM111.47 21.8783C110.59 20.9346 109.409 20.504 108.05 20.504V22.504C108.963 22.504 109.574 22.7774 110.006 23.2417L111.47 21.8783ZM108.05 20.504C106.672 20.504 105.474 20.9443 104.567 21.8931L106.013 23.2749C106.482 22.7837 107.124 22.504 108.05 22.504V20.504ZM104.559 21.9017C103.656 22.8695 103.282 24.1998 103.282 25.728H105.282C105.282 24.5042 105.58 23.7385 106.021 23.2663L104.559 21.9017ZM103.282 25.728V33H105.282V25.728H103.282ZM104.282 32H102.098V34H104.282V32ZM103.098 33V19.848H101.098V33H103.098ZM102.098 20.848H104.282V18.848H102.098V20.848ZM103.282 19.848V21.72H105.282V19.848H103.282ZM105.123 22.2608C105.455 21.7446 105.901 21.3446 106.481 21.0544L105.587 19.2656C104.695 19.7114 103.973 20.3514 103.441 21.1792L105.123 22.2608ZM106.474 21.0582C107.079 20.7618 107.751 20.608 108.506 20.608V18.608C107.469 18.608 106.493 18.8222 105.594 19.2618L106.474 21.0582ZM132.248 20.256L131.773 21.1359L131.78 21.1396L131.787 21.1432L132.248 20.256ZM134.12 22.152L133.236 22.6191L133.239 22.6256L133.243 22.632L134.12 22.152ZM134.816 33V34H135.816V33H134.816ZM132.656 33H131.656V34H132.656V33ZM131.672 22.56L130.94 23.2418L130.948 23.2501L131.672 22.56ZM126.224 22.584L125.501 21.8931L125.493 21.9017L126.224 22.584ZM125.216 33V34H126.216V33H125.216ZM123.032 33H122.032V34H123.032V33ZM123.032 15.24V14.24H122.032V15.24H123.032ZM125.216 15.24H126.216V14.24H125.216V15.24ZM125.216 21.72H124.216V25.1248L126.057 22.2608L125.216 21.72ZM126.992 20.16L126.56 19.2582L126.552 19.2618L126.992 20.16ZM129.56 20.608C130.402 20.608 131.132 20.7898 131.773 21.1359L132.723 19.3761C131.764 18.8582 130.702 18.608 129.56 18.608V20.608ZM131.787 21.1432C132.395 21.4593 132.876 21.9388 133.236 22.6191L135.004 21.6849C134.468 20.6692 133.701 19.8847 132.709 19.3688L131.787 21.1432ZM133.243 22.632C133.608 23.2996 133.816 24.1573 133.816 25.248H135.816C135.816 23.9067 135.56 22.7004 134.997 21.672L133.243 22.632ZM133.816 25.248V33H135.816V25.248H133.816ZM134.816 32H132.656V34H134.816V32ZM133.656 33V25.56H131.656V33H133.656ZM133.656 25.56C133.656 24.09 133.287 22.8049 132.396 21.8699L130.948 23.2501C131.369 23.6911 131.656 24.406 131.656 25.56H133.656ZM132.404 21.8783C131.524 20.9346 130.343 20.504 128.984 20.504V22.504C129.897 22.504 130.508 22.7774 130.94 23.2417L132.404 21.8783ZM128.984 20.504C127.606 20.504 126.408 20.9443 125.501 21.8931L126.947 23.2749C127.416 22.7837 128.058 22.504 128.984 22.504V20.504ZM125.493 21.9017C124.59 22.8695 124.216 24.1998 124.216 25.728H126.216C126.216 24.5042 126.514 23.7385 126.955 23.2663L125.493 21.9017ZM124.216 25.728V33H126.216V25.728H124.216ZM125.216 32H123.032V34H125.216V32ZM124.032 33V15.24H122.032V33H124.032ZM123.032 16.24H125.216V14.24H123.032V16.24ZM124.216 15.24V21.72H126.216V15.24H124.216ZM126.057 22.2608C126.386 21.7499 126.835 21.35 127.432 21.0582L126.552 19.2618C125.645 19.706 124.91 20.3461 124.375 21.1792L126.057 22.2608ZM127.424 21.0618C128.043 20.7652 128.749 20.608 129.56 20.608V18.608C128.483 18.608 127.477 18.8188 126.56 19.2582L127.424 21.0618ZM145.968 20.616L145.445 21.4689L145.453 21.4735L145.968 20.616ZM147.792 22.656L146.887 23.0834L146.892 23.0933L146.897 23.1032L147.792 22.656ZM148.44 26.976V27.976H149.44V26.976H148.44ZM139.632 26.976V25.976H138.609L138.632 26.998L139.632 26.976ZM140.736 30.312L139.998 30.9877L140.006 30.9957L140.013 31.0036L140.736 30.312ZM145.896 31.224L146.12 32.1984L146.129 32.1963L146.138 32.1941L145.896 31.224ZM147.864 30.552H148.864V29.0355L147.47 29.6329L147.864 30.552ZM147.864 32.4L148.266 33.3156L148.864 33.0531V32.4H147.864ZM145.92 33.024L145.723 32.0434L145.712 32.0458L145.7 32.0484L145.92 33.024ZM140.4 32.496L139.928 33.378L139.934 33.3812L140.4 32.496ZM138.216 30.288L137.327 30.7466L137.331 30.7553L137.336 30.7638L138.216 30.288ZM138.144 23.04L137.241 22.61L137.235 22.6219L138.144 23.04ZM140.136 20.712L139.603 19.8657L139.596 19.8703L140.136 20.712ZM140.712 22.608L139.969 21.938L139.968 21.939L140.712 22.608ZM139.68 25.296L138.684 25.1992L138.578 26.296H139.68V25.296ZM146.232 25.296V26.296H147.232V25.296H146.232ZM145.896 23.376L144.971 23.7567L144.971 23.7567L145.896 23.376ZM144.864 22.104L144.282 22.9177L144.299 22.9294L144.316 22.9405L144.864 22.104ZM144.072 14.616L144.949 14.1371L144.665 13.616H144.072V14.616ZM144.888 15.816L144.101 16.4338L144.113 16.4494L144.126 16.4645L144.888 15.816ZM146.016 17.112L145.268 17.7764L145.281 17.791L145.295 17.8051L146.016 17.112ZM147.072 18.192H148.072V17.7778L147.779 17.4849L147.072 18.192ZM147.072 18.456V19.456H148.072V18.456H147.072ZM145.584 18.456L145.059 19.3077L145.301 19.456H145.584V18.456ZM144.288 17.52L143.637 18.2793L143.645 18.2861L143.653 18.2927L144.288 17.52ZM142.968 16.296L143.675 15.5889L142.968 14.8818L142.26 15.5889L142.968 16.296ZM141.672 17.496L141.023 16.7348L141.023 16.7348L141.672 17.496ZM140.4 18.456V19.456H140.697L140.947 19.293L140.4 18.456ZM138.96 18.456H137.96V19.456H138.96V18.456ZM138.96 18.192L138.235 17.5032L137.96 17.7927V18.192H138.96ZM139.968 17.088L139.233 16.4097L139.226 16.4175L139.219 16.4254L139.968 17.088ZM141.072 15.816L141.847 16.4477L141.852 16.4408L141.858 16.4338L141.072 15.816ZM141.912 14.616V13.616H141.341L141.051 14.1073L141.912 14.616ZM142.44 36.888L141.757 37.6191L141.769 37.63L141.781 37.6406L142.44 36.888ZM142.44 34.848L141.809 34.0719L141.782 34.0935L141.757 34.1169L142.44 34.848ZM144.192 34.848L144.85 34.0954L144.846 34.0923L144.192 34.848ZM144.192 36.888L143.533 36.1354L143.521 36.146L143.509 36.1569L144.192 36.888ZM143.136 20.896C144.093 20.896 144.848 21.1028 145.445 21.4689L146.49 19.7631C145.52 19.1692 144.387 18.896 143.136 18.896V20.896ZM145.453 21.4735C146.076 21.8472 146.552 22.3739 146.887 23.0834L148.696 22.2286C148.199 21.1781 147.459 20.3448 146.482 19.7585L145.453 21.4735ZM146.897 23.1032C147.247 23.8023 147.44 24.6592 147.44 25.704H149.44C149.44 24.4128 149.2 23.2377 148.686 22.2088L146.897 23.1032ZM147.44 25.704V26.976H149.44V25.704H147.44ZM148.44 25.976H139.632V27.976H148.44V25.976ZM138.632 26.998C138.667 28.6004 139.075 29.9808 139.998 30.9877L141.473 29.6363C140.988 29.1072 140.66 28.2636 140.631 26.954L138.632 26.998ZM140.013 31.0036C140.964 31.9962 142.25 32.44 143.736 32.44V30.44C142.661 30.44 141.947 30.1318 141.458 29.6204L140.013 31.0036ZM143.736 32.44C144.608 32.44 145.406 32.3633 146.12 32.1984L145.671 30.2496C145.137 30.3727 144.495 30.44 143.736 30.44V32.44ZM146.138 32.1941C146.835 32.0199 147.542 31.7779 148.257 31.4711L147.47 29.6329C146.841 29.9021 146.236 30.1081 145.653 30.2539L146.138 32.1941ZM146.864 30.552V32.4H148.864V30.552H146.864ZM147.462 31.4844C146.865 31.7461 146.286 31.9309 145.723 32.0434L146.116 34.0046C146.833 33.8611 147.55 33.6299 148.266 33.3156L147.462 31.4844ZM145.7 32.0484C145.152 32.1718 144.469 32.24 143.64 32.24V34.24C144.57 34.24 145.407 34.1642 146.139 33.9996L145.7 32.0484ZM143.64 32.24C142.563 32.24 141.646 32.0214 140.865 31.6108L139.934 33.3812C141.041 33.9626 142.284 34.24 143.64 34.24V32.24ZM140.871 31.6141C140.126 31.2157 139.535 30.6256 139.095 29.8122L137.336 30.7638C137.952 31.9024 138.818 32.7843 139.928 33.3779L140.871 31.6141ZM139.104 29.8294C138.683 29.0128 138.448 27.9712 138.448 26.664H136.448C136.448 28.2048 136.724 29.5792 137.327 30.7466L139.104 29.8294ZM138.448 26.664C138.448 25.3628 138.662 24.3047 139.052 23.4581L137.235 22.6219C136.697 23.7913 136.448 25.1492 136.448 26.664H138.448ZM139.046 23.4699C139.455 22.6116 140.001 21.9863 140.676 21.5537L139.596 19.8703C138.574 20.5257 137.792 21.4524 137.241 22.6101L139.046 23.4699ZM140.668 21.5582C141.355 21.1258 142.166 20.896 143.136 20.896V18.896C141.833 18.896 140.644 19.2102 139.603 19.8658L140.668 21.5582ZM143.112 20.624C141.865 20.624 140.778 21.0413 139.969 21.938L141.454 23.278C141.829 22.8627 142.343 22.624 143.112 22.624V20.624ZM139.968 21.939C139.207 22.7846 138.81 23.9069 138.684 25.1992L140.675 25.3928C140.773 24.3811 141.064 23.7114 141.455 23.277L139.968 21.939ZM139.68 26.296H146.232V24.296H139.68V26.296ZM147.232 25.296C147.232 24.461 147.105 23.6862 146.82 22.9952L144.971 23.7567C145.134 24.1538 145.232 24.659 145.232 25.296H147.232ZM146.82 22.9952C146.524 22.2768 146.055 21.6889 145.412 21.2675L144.316 22.9405C144.6 23.1271 144.819 23.3872 144.971 23.7567L146.82 22.9952ZM145.445 21.2903C144.782 20.8167 143.976 20.624 143.112 20.624V22.624C143.687 22.624 144.049 22.7513 144.282 22.9177L145.445 21.2903ZM143.194 15.0949C143.421 15.5112 143.728 15.9587 144.101 16.4338L145.674 15.1982C145.343 14.7773 145.106 14.4248 144.949 14.1371L143.194 15.0949ZM144.126 16.4645C144.499 16.9019 144.88 17.3392 145.268 17.7764L146.763 16.4476C146.384 16.0208 146.012 15.5941 145.649 15.1675L144.126 16.4645ZM145.295 17.8051C145.698 18.2243 146.055 18.5892 146.364 18.8991L147.779 17.4849C147.481 17.1868 147.133 16.8317 146.736 16.4189L145.295 17.8051ZM146.072 18.192V18.456H148.072V18.192H146.072ZM147.072 17.456H145.584V19.456H147.072V17.456ZM146.108 17.6043C145.737 17.376 145.342 17.0916 144.922 16.7473L143.653 18.2927C144.13 18.6844 144.598 19.024 145.059 19.3077L146.108 17.6043ZM144.938 16.7607C144.51 16.394 144.089 16.0034 143.675 15.5889L142.26 17.0031C142.71 17.4526 143.169 17.878 143.637 18.2793L144.938 16.7607ZM142.26 15.5889C141.846 16.0035 141.433 16.3853 141.023 16.7348L142.32 18.2572C142.774 17.8707 143.225 17.4525 143.675 17.0031L142.26 15.5889ZM141.023 16.7348C140.619 17.0792 140.228 17.3731 139.852 17.619L140.947 19.293C141.403 18.9949 141.86 18.6488 142.32 18.2572L141.023 16.7348ZM140.4 17.456H138.96V19.456H140.4V17.456ZM139.96 18.456V18.192H137.96V18.456H139.96ZM139.685 18.8807C139.998 18.5503 140.343 18.1733 140.717 17.7506L139.219 16.4254C138.857 16.8347 138.529 17.1937 138.235 17.5032L139.685 18.8807ZM140.702 17.7663C141.1 17.3354 141.482 16.8959 141.847 16.4477L140.296 15.1843C139.958 15.6001 139.603 16.0086 139.233 16.4097L140.702 17.7663ZM141.858 16.4338C142.227 15.9635 142.535 15.5262 142.772 15.1247L141.051 14.1073C140.872 14.4098 140.62 14.7725 140.285 15.1982L141.858 16.4338ZM141.912 15.616H144.072V13.616H141.912V15.616ZM143.328 36.224C143.237 36.224 143.174 36.2021 143.098 36.1354L141.781 37.6406C142.217 38.0219 142.746 38.224 143.328 38.224V36.224ZM143.122 36.1569C143.129 36.1632 143.122 36.1626 143.111 36.1317C143.098 36.0952 143.08 36.0174 143.08 35.88H141.08C141.08 36.5005 141.249 37.1447 141.757 37.6191L143.122 36.1569ZM143.08 35.88C143.08 35.7309 143.099 35.645 143.114 35.6034C143.126 35.5674 143.133 35.5687 143.122 35.5791L141.757 34.1169C141.242 34.5974 141.08 35.256 141.08 35.88H143.08ZM143.07 35.6241C143.144 35.5639 143.217 35.536 143.328 35.536V33.536C142.767 33.536 142.247 33.7161 141.809 34.0719L143.07 35.6241ZM143.328 35.536C143.438 35.536 143.49 35.5629 143.537 35.6037L144.846 34.0923C144.414 33.7171 143.889 33.536 143.328 33.536V35.536ZM143.533 35.6006C143.526 35.5947 143.532 35.5938 143.542 35.6227C143.555 35.658 143.576 35.7369 143.576 35.88H145.576C145.576 35.2376 145.394 34.5714 144.85 34.0954L143.533 35.6006ZM143.576 35.88C143.576 36.0112 143.557 36.0818 143.545 36.112C143.54 36.1264 143.536 36.1325 143.535 36.1335C143.534 36.1343 143.534 36.1345 143.533 36.1354L144.85 37.6406C145.387 37.171 145.576 36.5194 145.576 35.88H143.576ZM143.509 36.1569C143.459 36.2037 143.417 36.224 143.328 36.224V38.224C143.91 38.224 144.444 38.0203 144.874 37.6191L143.509 36.1569Z" fill="black" fill-opacity="0.5" mask="url(#path-3-inside-1_650_730)"/>
</svg>
