<svg width="305" height="49" viewBox="0 0 305 49" fill="none" xmlns="http://www.w3.org/2000/svg">
<circle cx="9" cy="24" r="9" fill="#3B9D39"/>
<path d="M291.068 49H93.233C86.267 49 79.301 48.02 73.7281 46.06L22.1796 27.93C16.6068 25.97 16.6068 23.03 22.1796 21.07L73.7281 2.94C79.301 0.979999 86.267 0 93.233 0H291.068C299.427 0 305 1.96 305 4.9V44.1C305 47.04 299.427 49 291.068 49Z" fill="#019255" fill-opacity="0.5"/>
<mask id="path-3-inside-1_650_731" fill="white">
<path d="M89.4633 16.272V18.048H84.9033V33H82.7193V18.048H78.1353V16.272H89.4633ZM98.2717 19.608C99.2637 19.608 100.16 19.824 100.96 20.256C101.76 20.672 102.384 21.304 102.832 22.152C103.296 23 103.528 24.032 103.528 25.248V33H101.368V25.56C101.368 24.248 101.04 23.248 100.384 22.56C99.7277 21.856 98.8317 21.504 97.6957 21.504C96.5437 21.504 95.6237 21.864 94.9357 22.584C94.2637 23.304 93.9277 24.352 93.9277 25.728V33H91.7437V15.24H93.9277V21.72C94.3597 21.048 94.9517 20.528 95.7037 20.16C96.4717 19.792 97.3277 19.608 98.2717 19.608ZM112.423 33.216C111.191 33.216 110.071 32.936 109.063 32.376C108.071 31.816 107.287 31.024 106.711 30C106.151 28.96 105.871 27.76 105.871 26.4C105.871 25.056 106.159 23.872 106.735 22.848C107.327 21.808 108.127 21.016 109.135 20.472C110.143 19.912 111.271 19.632 112.519 19.632C113.767 19.632 114.895 19.912 115.903 20.472C116.911 21.016 117.703 21.8 118.279 22.824C118.871 23.848 119.167 25.04 119.167 26.4C119.167 27.76 118.863 28.96 118.255 30C117.663 31.024 116.855 31.816 115.831 32.376C114.807 32.936 113.671 33.216 112.423 33.216ZM112.423 31.296C113.207 31.296 113.943 31.112 114.631 30.744C115.319 30.376 115.871 29.824 116.287 29.088C116.719 28.352 116.935 27.456 116.935 26.4C116.935 25.344 116.727 24.448 116.311 23.712C115.895 22.976 115.351 22.432 114.679 22.08C114.007 21.712 113.279 21.528 112.495 21.528C111.695 21.528 110.959 21.712 110.287 22.08C109.631 22.432 109.103 22.976 108.703 23.712C108.303 24.448 108.103 25.344 108.103 26.4C108.103 27.472 108.295 28.376 108.679 29.112C109.079 29.848 109.607 30.4 110.263 30.768C110.919 31.12 111.639 31.296 112.423 31.296ZM112.543 16.464L109.207 18.504V16.776L112.543 14.784L115.855 16.776V18.504L112.543 16.464ZM128.039 19.608C129.639 19.608 130.935 20.096 131.927 21.072C132.919 22.032 133.415 23.424 133.415 25.248V33H131.255V25.56C131.255 24.248 130.927 23.248 130.271 22.56C129.615 21.856 128.719 21.504 127.583 21.504C126.431 21.504 125.511 21.864 124.823 22.584C124.151 23.304 123.815 24.352 123.815 25.728V33H121.631V19.848H123.815V21.72C124.247 21.048 124.831 20.528 125.567 20.16C126.319 19.792 127.143 19.608 128.039 19.608ZM141.998 19.632C143.134 19.632 144.126 19.88 144.974 20.376C145.838 20.872 146.478 21.496 146.894 22.248V19.848H149.102V33.288C149.102 34.488 148.846 35.552 148.334 36.48C147.822 37.424 147.086 38.16 146.126 38.688C145.182 39.216 144.078 39.48 142.814 39.48C141.086 39.48 139.646 39.072 138.494 38.256C137.342 37.44 136.662 36.328 136.454 34.92H138.614C138.854 35.72 139.35 36.36 140.102 36.84C140.854 37.336 141.758 37.584 142.814 37.584C144.014 37.584 144.99 37.208 145.742 36.456C146.51 35.704 146.894 34.648 146.894 33.288V30.528C146.462 31.296 145.822 31.936 144.974 32.448C144.126 32.96 143.134 33.216 141.998 33.216C140.83 33.216 139.766 32.928 138.806 32.352C137.862 31.776 137.118 30.968 136.574 29.928C136.03 28.888 135.758 27.704 135.758 26.376C135.758 25.032 136.03 23.856 136.574 22.848C137.118 21.824 137.862 21.032 138.806 20.472C139.766 19.912 140.83 19.632 141.998 19.632ZM146.894 26.4C146.894 25.408 146.694 24.544 146.294 23.808C145.894 23.072 145.35 22.512 144.662 22.128C143.99 21.728 143.246 21.528 142.43 21.528C141.614 21.528 140.87 21.72 140.198 22.104C139.526 22.488 138.99 23.048 138.59 23.784C138.19 24.52 137.99 25.384 137.99 26.376C137.99 27.384 138.19 28.264 138.59 29.016C138.99 29.752 139.526 30.32 140.198 30.72C140.87 31.104 141.614 31.296 142.43 31.296C143.246 31.296 143.99 31.104 144.662 30.72C145.35 30.32 145.894 29.752 146.294 29.016C146.694 28.264 146.894 27.392 146.894 26.4ZM161.04 21.648V29.4C161.04 30.04 161.176 30.496 161.448 30.768C161.72 31.024 162.192 31.152 162.864 31.152H164.472V33H162.504C161.288 33 160.376 32.72 159.768 32.16C159.16 31.6 158.856 30.68 158.856 29.4V21.648H157.152V19.848H158.856V16.536H161.04V19.848H164.472V21.648H161.04ZM167.838 17.712C167.422 17.712 167.07 17.568 166.782 17.28C166.494 16.992 166.35 16.64 166.35 16.224C166.35 15.808 166.494 15.456 166.782 15.168C167.07 14.88 167.422 14.736 167.838 14.736C168.238 14.736 168.574 14.88 168.846 15.168C169.134 15.456 169.278 15.808 169.278 16.224C169.278 16.64 169.134 16.992 168.846 17.28C168.574 17.568 168.238 17.712 167.838 17.712ZM168.894 19.848V33H166.71V19.848H168.894ZM178.616 19.608C180.216 19.608 181.512 20.096 182.504 21.072C183.496 22.032 183.992 23.424 183.992 25.248V33H181.832V25.56C181.832 24.248 181.504 23.248 180.848 22.56C180.192 21.856 179.296 21.504 178.16 21.504C177.008 21.504 176.088 21.864 175.4 22.584C174.728 23.304 174.392 24.352 174.392 25.728V33H172.208V19.848H174.392V21.72C174.824 21.048 175.408 20.528 176.144 20.16C176.896 19.792 177.72 19.608 178.616 19.608ZM192.326 26.4C192.326 25.04 192.598 23.856 193.142 22.848C193.686 21.824 194.438 21.032 195.398 20.472C196.374 19.912 197.486 19.632 198.734 19.632C200.35 19.632 201.678 20.024 202.718 20.808C203.774 21.592 204.47 22.68 204.806 24.072H202.454C202.23 23.272 201.79 22.64 201.134 22.176C200.494 21.712 199.694 21.48 198.734 21.48C197.486 21.48 196.478 21.912 195.71 22.776C194.942 23.624 194.558 24.832 194.558 26.4C194.558 27.984 194.942 29.208 195.71 30.072C196.478 30.936 197.486 31.368 198.734 31.368C199.694 31.368 200.494 31.144 201.134 30.696C201.774 30.248 202.214 29.608 202.454 28.776H204.806C204.454 30.12 203.75 31.2 202.694 32.016C201.638 32.816 200.318 33.216 198.734 33.216C197.486 33.216 196.374 32.936 195.398 32.376C194.438 31.816 193.686 31.024 193.142 30C192.598 28.976 192.326 27.776 192.326 26.4ZM206.496 26.376C206.496 25.032 206.768 23.856 207.312 22.848C207.856 21.824 208.6 21.032 209.544 20.472C210.504 19.912 211.568 19.632 212.736 19.632C213.888 19.632 214.888 19.88 215.736 20.376C216.584 20.872 217.216 21.496 217.632 22.248V19.848H219.84V33H217.632V30.552C217.2 31.32 216.552 31.96 215.688 32.472C214.84 32.968 213.848 33.216 212.712 33.216C211.544 33.216 210.488 32.928 209.544 32.352C208.6 31.776 207.856 30.968 207.312 29.928C206.768 28.888 206.496 27.704 206.496 26.376ZM217.632 26.4C217.632 25.408 217.432 24.544 217.032 23.808C216.632 23.072 216.088 22.512 215.4 22.128C214.728 21.728 213.984 21.528 213.168 21.528C212.352 21.528 211.608 21.72 210.936 22.104C210.264 22.488 209.728 23.048 209.328 23.784C208.928 24.52 208.728 25.384 208.728 26.376C208.728 27.384 208.928 28.264 209.328 29.016C209.728 29.752 210.264 30.32 210.936 30.72C211.608 31.104 212.352 31.296 213.168 31.296C213.984 31.296 214.728 31.104 215.4 30.72C216.088 30.32 216.632 29.752 217.032 29.016C217.432 28.264 217.632 27.392 217.632 26.4ZM215.928 16.128L210.816 18.864V17.232L215.928 14.232V16.128ZM235.521 19.608C237.121 19.608 238.417 20.096 239.409 21.072C240.401 22.032 240.897 23.424 240.897 25.248V33H238.737V25.56C238.737 24.248 238.409 23.248 237.753 22.56C237.097 21.856 236.201 21.504 235.065 21.504C233.913 21.504 232.993 21.864 232.305 22.584C231.633 23.304 231.297 24.352 231.297 25.728V33H229.113V19.848H231.297V21.72C231.729 21.048 232.313 20.528 233.049 20.16C233.801 19.792 234.625 19.608 235.521 19.608ZM250.585 19.608C251.577 19.608 252.473 19.824 253.273 20.256C254.073 20.672 254.697 21.304 255.145 22.152C255.609 23 255.841 24.032 255.841 25.248V33H253.681V25.56C253.681 24.248 253.353 23.248 252.697 22.56C252.041 21.856 251.145 21.504 250.009 21.504C248.857 21.504 247.937 21.864 247.249 22.584C246.577 23.304 246.241 24.352 246.241 25.728V33H244.057V15.24H246.241V21.72C246.673 21.048 247.265 20.528 248.017 20.16C248.785 19.792 249.641 19.608 250.585 19.608ZM258.184 26.376C258.184 25.032 258.456 23.856 259 22.848C259.544 21.824 260.288 21.032 261.232 20.472C262.192 19.912 263.256 19.632 264.424 19.632C265.576 19.632 266.576 19.88 267.424 20.376C268.272 20.872 268.904 21.496 269.32 22.248V19.848H271.528V33H269.32V30.552C268.888 31.32 268.24 31.96 267.376 32.472C266.528 32.968 265.536 33.216 264.4 33.216C263.232 33.216 262.176 32.928 261.232 32.352C260.288 31.776 259.544 30.968 259 29.928C258.456 28.888 258.184 27.704 258.184 26.376ZM269.32 26.4C269.32 25.408 269.12 24.544 268.72 23.808C268.32 23.072 267.776 22.512 267.088 22.128C266.416 21.728 265.672 21.528 264.856 21.528C264.04 21.528 263.296 21.72 262.624 22.104C261.952 22.488 261.416 23.048 261.016 23.784C260.616 24.52 260.416 25.384 260.416 26.376C260.416 27.384 260.616 28.264 261.016 29.016C261.416 29.752 261.952 30.32 262.624 30.72C263.296 31.104 264.04 31.296 264.856 31.296C265.672 31.296 266.416 31.104 267.088 30.72C267.776 30.32 268.32 29.752 268.72 29.016C269.12 28.264 269.32 27.392 269.32 26.4ZM265.288 16.632L261.952 18.672V16.944L265.288 14.952L268.6 16.944V18.672L265.288 16.632ZM281.219 19.608C282.819 19.608 284.115 20.096 285.107 21.072C286.099 22.032 286.595 23.424 286.595 25.248V33H284.435V25.56C284.435 24.248 284.107 23.248 283.451 22.56C282.795 21.856 281.899 21.504 280.763 21.504C279.611 21.504 278.691 21.864 278.003 22.584C277.331 23.304 276.995 24.352 276.995 25.728V33H274.811V19.848H276.995V21.72C277.427 21.048 278.011 20.528 278.747 20.16C279.499 19.792 280.323 19.608 281.219 19.608Z"/>
</mask>
<path d="M89.4633 16.272V18.048H84.9033V33H82.7193V18.048H78.1353V16.272H89.4633ZM98.2717 19.608C99.2637 19.608 100.16 19.824 100.96 20.256C101.76 20.672 102.384 21.304 102.832 22.152C103.296 23 103.528 24.032 103.528 25.248V33H101.368V25.56C101.368 24.248 101.04 23.248 100.384 22.56C99.7277 21.856 98.8317 21.504 97.6957 21.504C96.5437 21.504 95.6237 21.864 94.9357 22.584C94.2637 23.304 93.9277 24.352 93.9277 25.728V33H91.7437V15.24H93.9277V21.72C94.3597 21.048 94.9517 20.528 95.7037 20.16C96.4717 19.792 97.3277 19.608 98.2717 19.608ZM112.423 33.216C111.191 33.216 110.071 32.936 109.063 32.376C108.071 31.816 107.287 31.024 106.711 30C106.151 28.96 105.871 27.76 105.871 26.4C105.871 25.056 106.159 23.872 106.735 22.848C107.327 21.808 108.127 21.016 109.135 20.472C110.143 19.912 111.271 19.632 112.519 19.632C113.767 19.632 114.895 19.912 115.903 20.472C116.911 21.016 117.703 21.8 118.279 22.824C118.871 23.848 119.167 25.04 119.167 26.4C119.167 27.76 118.863 28.96 118.255 30C117.663 31.024 116.855 31.816 115.831 32.376C114.807 32.936 113.671 33.216 112.423 33.216ZM112.423 31.296C113.207 31.296 113.943 31.112 114.631 30.744C115.319 30.376 115.871 29.824 116.287 29.088C116.719 28.352 116.935 27.456 116.935 26.4C116.935 25.344 116.727 24.448 116.311 23.712C115.895 22.976 115.351 22.432 114.679 22.08C114.007 21.712 113.279 21.528 112.495 21.528C111.695 21.528 110.959 21.712 110.287 22.08C109.631 22.432 109.103 22.976 108.703 23.712C108.303 24.448 108.103 25.344 108.103 26.4C108.103 27.472 108.295 28.376 108.679 29.112C109.079 29.848 109.607 30.4 110.263 30.768C110.919 31.12 111.639 31.296 112.423 31.296ZM112.543 16.464L109.207 18.504V16.776L112.543 14.784L115.855 16.776V18.504L112.543 16.464ZM128.039 19.608C129.639 19.608 130.935 20.096 131.927 21.072C132.919 22.032 133.415 23.424 133.415 25.248V33H131.255V25.56C131.255 24.248 130.927 23.248 130.271 22.56C129.615 21.856 128.719 21.504 127.583 21.504C126.431 21.504 125.511 21.864 124.823 22.584C124.151 23.304 123.815 24.352 123.815 25.728V33H121.631V19.848H123.815V21.72C124.247 21.048 124.831 20.528 125.567 20.16C126.319 19.792 127.143 19.608 128.039 19.608ZM141.998 19.632C143.134 19.632 144.126 19.88 144.974 20.376C145.838 20.872 146.478 21.496 146.894 22.248V19.848H149.102V33.288C149.102 34.488 148.846 35.552 148.334 36.48C147.822 37.424 147.086 38.16 146.126 38.688C145.182 39.216 144.078 39.48 142.814 39.48C141.086 39.48 139.646 39.072 138.494 38.256C137.342 37.44 136.662 36.328 136.454 34.92H138.614C138.854 35.72 139.35 36.36 140.102 36.84C140.854 37.336 141.758 37.584 142.814 37.584C144.014 37.584 144.99 37.208 145.742 36.456C146.51 35.704 146.894 34.648 146.894 33.288V30.528C146.462 31.296 145.822 31.936 144.974 32.448C144.126 32.96 143.134 33.216 141.998 33.216C140.83 33.216 139.766 32.928 138.806 32.352C137.862 31.776 137.118 30.968 136.574 29.928C136.03 28.888 135.758 27.704 135.758 26.376C135.758 25.032 136.03 23.856 136.574 22.848C137.118 21.824 137.862 21.032 138.806 20.472C139.766 19.912 140.83 19.632 141.998 19.632ZM146.894 26.4C146.894 25.408 146.694 24.544 146.294 23.808C145.894 23.072 145.35 22.512 144.662 22.128C143.99 21.728 143.246 21.528 142.43 21.528C141.614 21.528 140.87 21.72 140.198 22.104C139.526 22.488 138.99 23.048 138.59 23.784C138.19 24.52 137.99 25.384 137.99 26.376C137.99 27.384 138.19 28.264 138.59 29.016C138.99 29.752 139.526 30.32 140.198 30.72C140.87 31.104 141.614 31.296 142.43 31.296C143.246 31.296 143.99 31.104 144.662 30.72C145.35 30.32 145.894 29.752 146.294 29.016C146.694 28.264 146.894 27.392 146.894 26.4ZM161.04 21.648V29.4C161.04 30.04 161.176 30.496 161.448 30.768C161.72 31.024 162.192 31.152 162.864 31.152H164.472V33H162.504C161.288 33 160.376 32.72 159.768 32.16C159.16 31.6 158.856 30.68 158.856 29.4V21.648H157.152V19.848H158.856V16.536H161.04V19.848H164.472V21.648H161.04ZM167.838 17.712C167.422 17.712 167.07 17.568 166.782 17.28C166.494 16.992 166.35 16.64 166.35 16.224C166.35 15.808 166.494 15.456 166.782 15.168C167.07 14.88 167.422 14.736 167.838 14.736C168.238 14.736 168.574 14.88 168.846 15.168C169.134 15.456 169.278 15.808 169.278 16.224C169.278 16.64 169.134 16.992 168.846 17.28C168.574 17.568 168.238 17.712 167.838 17.712ZM168.894 19.848V33H166.71V19.848H168.894ZM178.616 19.608C180.216 19.608 181.512 20.096 182.504 21.072C183.496 22.032 183.992 23.424 183.992 25.248V33H181.832V25.56C181.832 24.248 181.504 23.248 180.848 22.56C180.192 21.856 179.296 21.504 178.16 21.504C177.008 21.504 176.088 21.864 175.4 22.584C174.728 23.304 174.392 24.352 174.392 25.728V33H172.208V19.848H174.392V21.72C174.824 21.048 175.408 20.528 176.144 20.16C176.896 19.792 177.72 19.608 178.616 19.608ZM192.326 26.4C192.326 25.04 192.598 23.856 193.142 22.848C193.686 21.824 194.438 21.032 195.398 20.472C196.374 19.912 197.486 19.632 198.734 19.632C200.35 19.632 201.678 20.024 202.718 20.808C203.774 21.592 204.47 22.68 204.806 24.072H202.454C202.23 23.272 201.79 22.64 201.134 22.176C200.494 21.712 199.694 21.48 198.734 21.48C197.486 21.48 196.478 21.912 195.71 22.776C194.942 23.624 194.558 24.832 194.558 26.4C194.558 27.984 194.942 29.208 195.71 30.072C196.478 30.936 197.486 31.368 198.734 31.368C199.694 31.368 200.494 31.144 201.134 30.696C201.774 30.248 202.214 29.608 202.454 28.776H204.806C204.454 30.12 203.75 31.2 202.694 32.016C201.638 32.816 200.318 33.216 198.734 33.216C197.486 33.216 196.374 32.936 195.398 32.376C194.438 31.816 193.686 31.024 193.142 30C192.598 28.976 192.326 27.776 192.326 26.4ZM206.496 26.376C206.496 25.032 206.768 23.856 207.312 22.848C207.856 21.824 208.6 21.032 209.544 20.472C210.504 19.912 211.568 19.632 212.736 19.632C213.888 19.632 214.888 19.88 215.736 20.376C216.584 20.872 217.216 21.496 217.632 22.248V19.848H219.84V33H217.632V30.552C217.2 31.32 216.552 31.96 215.688 32.472C214.84 32.968 213.848 33.216 212.712 33.216C211.544 33.216 210.488 32.928 209.544 32.352C208.6 31.776 207.856 30.968 207.312 29.928C206.768 28.888 206.496 27.704 206.496 26.376ZM217.632 26.4C217.632 25.408 217.432 24.544 217.032 23.808C216.632 23.072 216.088 22.512 215.4 22.128C214.728 21.728 213.984 21.528 213.168 21.528C212.352 21.528 211.608 21.72 210.936 22.104C210.264 22.488 209.728 23.048 209.328 23.784C208.928 24.52 208.728 25.384 208.728 26.376C208.728 27.384 208.928 28.264 209.328 29.016C209.728 29.752 210.264 30.32 210.936 30.72C211.608 31.104 212.352 31.296 213.168 31.296C213.984 31.296 214.728 31.104 215.4 30.72C216.088 30.32 216.632 29.752 217.032 29.016C217.432 28.264 217.632 27.392 217.632 26.4ZM215.928 16.128L210.816 18.864V17.232L215.928 14.232V16.128ZM235.521 19.608C237.121 19.608 238.417 20.096 239.409 21.072C240.401 22.032 240.897 23.424 240.897 25.248V33H238.737V25.56C238.737 24.248 238.409 23.248 237.753 22.56C237.097 21.856 236.201 21.504 235.065 21.504C233.913 21.504 232.993 21.864 232.305 22.584C231.633 23.304 231.297 24.352 231.297 25.728V33H229.113V19.848H231.297V21.72C231.729 21.048 232.313 20.528 233.049 20.16C233.801 19.792 234.625 19.608 235.521 19.608ZM250.585 19.608C251.577 19.608 252.473 19.824 253.273 20.256C254.073 20.672 254.697 21.304 255.145 22.152C255.609 23 255.841 24.032 255.841 25.248V33H253.681V25.56C253.681 24.248 253.353 23.248 252.697 22.56C252.041 21.856 251.145 21.504 250.009 21.504C248.857 21.504 247.937 21.864 247.249 22.584C246.577 23.304 246.241 24.352 246.241 25.728V33H244.057V15.24H246.241V21.72C246.673 21.048 247.265 20.528 248.017 20.16C248.785 19.792 249.641 19.608 250.585 19.608ZM258.184 26.376C258.184 25.032 258.456 23.856 259 22.848C259.544 21.824 260.288 21.032 261.232 20.472C262.192 19.912 263.256 19.632 264.424 19.632C265.576 19.632 266.576 19.88 267.424 20.376C268.272 20.872 268.904 21.496 269.32 22.248V19.848H271.528V33H269.32V30.552C268.888 31.32 268.24 31.96 267.376 32.472C266.528 32.968 265.536 33.216 264.4 33.216C263.232 33.216 262.176 32.928 261.232 32.352C260.288 31.776 259.544 30.968 259 29.928C258.456 28.888 258.184 27.704 258.184 26.376ZM269.32 26.4C269.32 25.408 269.12 24.544 268.72 23.808C268.32 23.072 267.776 22.512 267.088 22.128C266.416 21.728 265.672 21.528 264.856 21.528C264.04 21.528 263.296 21.72 262.624 22.104C261.952 22.488 261.416 23.048 261.016 23.784C260.616 24.52 260.416 25.384 260.416 26.376C260.416 27.384 260.616 28.264 261.016 29.016C261.416 29.752 261.952 30.32 262.624 30.72C263.296 31.104 264.04 31.296 264.856 31.296C265.672 31.296 266.416 31.104 267.088 30.72C267.776 30.32 268.32 29.752 268.72 29.016C269.12 28.264 269.32 27.392 269.32 26.4ZM265.288 16.632L261.952 18.672V16.944L265.288 14.952L268.6 16.944V18.672L265.288 16.632ZM281.219 19.608C282.819 19.608 284.115 20.096 285.107 21.072C286.099 22.032 286.595 23.424 286.595 25.248V33H284.435V25.56C284.435 24.248 284.107 23.248 283.451 22.56C282.795 21.856 281.899 21.504 280.763 21.504C279.611 21.504 278.691 21.864 278.003 22.584C277.331 23.304 276.995 24.352 276.995 25.728V33H274.811V19.848H276.995V21.72C277.427 21.048 278.011 20.528 278.747 20.16C279.499 19.792 280.323 19.608 281.219 19.608Z" fill="black"/>
<path d="M89.4633 16.272H90.4633V15.272H89.4633V16.272ZM89.4633 18.048V19.048H90.4633V18.048H89.4633ZM84.9033 18.048V17.048H83.9033V18.048H84.9033ZM84.9033 33V34H85.9033V33H84.9033ZM82.7193 33H81.7193V34H82.7193V33ZM82.7193 18.048H83.7193V17.048H82.7193V18.048ZM78.1353 18.048H77.1353V19.048H78.1353V18.048ZM78.1353 16.272V15.272H77.1353V16.272H78.1353ZM88.4633 16.272V18.048H90.4633V16.272H88.4633ZM89.4633 17.048H84.9033V19.048H89.4633V17.048ZM83.9033 18.048V33H85.9033V18.048H83.9033ZM84.9033 32H82.7193V34H84.9033V32ZM83.7193 33V18.048H81.7193V33H83.7193ZM82.7193 17.048H78.1353V19.048H82.7193V17.048ZM79.1353 18.048V16.272H77.1353V18.048H79.1353ZM78.1353 17.272H89.4633V15.272H78.1353V17.272ZM100.96 20.256L100.485 21.1359L100.491 21.1396L100.498 21.1432L100.96 20.256ZM102.832 22.152L101.947 22.6191L101.951 22.6256L101.954 22.632L102.832 22.152ZM103.528 33V34H104.528V33H103.528ZM101.368 33H100.368V34H101.368V33ZM100.384 22.56L99.652 23.2418L99.6599 23.2501L100.384 22.56ZM94.9357 22.584L94.2126 21.8931L94.2046 21.9017L94.9357 22.584ZM93.9277 33V34H94.9277V33H93.9277ZM91.7437 33H90.7437V34H91.7437V33ZM91.7437 15.24V14.24H90.7437V15.24H91.7437ZM93.9277 15.24H94.9277V14.24H93.9277V15.24ZM93.9277 21.72H92.9277V25.1248L94.7689 22.2608L93.9277 21.72ZM95.7037 20.16L95.2715 19.2582L95.2641 19.2618L95.7037 20.16ZM98.2717 20.608C99.1132 20.608 99.8435 20.7898 100.485 21.1359L101.435 19.3761C100.476 18.8582 99.4141 18.608 98.2717 18.608V20.608ZM100.498 21.1432C101.106 21.4593 101.588 21.9388 101.947 22.6191L103.716 21.6849C103.179 20.6692 102.413 19.8847 101.421 19.3688L100.498 21.1432ZM101.954 22.632C102.32 23.2996 102.528 24.1573 102.528 25.248H104.528C104.528 23.9067 104.272 22.7004 103.709 21.672L101.954 22.632ZM102.528 25.248V33H104.528V25.248H102.528ZM103.528 32H101.368V34H103.528V32ZM102.368 33V25.56H100.368V33H102.368ZM102.368 25.56C102.368 24.09 101.999 22.8049 101.107 21.8699L99.6599 23.2501C100.08 23.6911 100.368 24.406 100.368 25.56H102.368ZM101.115 21.8783C100.236 20.9346 99.0546 20.504 97.6957 20.504V22.504C98.6087 22.504 99.2194 22.7774 99.6521 23.2417L101.115 21.8783ZM97.6957 20.504C96.3173 20.504 95.1193 20.9443 94.2127 21.8931L95.6587 23.2749C96.128 22.7837 96.7701 22.504 97.6957 22.504V20.504ZM94.2046 21.9017C93.3013 22.8695 92.9277 24.1998 92.9277 25.728H94.9277C94.9277 24.5042 95.226 23.7385 95.6667 23.2663L94.2046 21.9017ZM92.9277 25.728V33H94.9277V25.728H92.9277ZM93.9277 32H91.7437V34H93.9277V32ZM92.7437 33V15.24H90.7437V33H92.7437ZM91.7437 16.24H93.9277V14.24H91.7437V16.24ZM92.9277 15.24V21.72H94.9277V15.24H92.9277ZM94.7689 22.2608C95.0973 21.7499 95.547 21.35 96.1432 21.0582L95.2641 19.2618C94.3563 19.706 93.6221 20.3461 93.0865 21.1792L94.7689 22.2608ZM96.1358 21.0618C96.7549 20.7652 97.4608 20.608 98.2717 20.608V18.608C97.1945 18.608 96.1885 18.8188 95.2716 19.2582L96.1358 21.0618ZM109.063 32.376L108.572 33.2468L108.578 33.2502L109.063 32.376ZM106.711 30L105.831 30.4741L105.835 30.4822L105.84 30.4903L106.711 30ZM106.735 22.848L105.866 22.3533L105.864 22.3577L106.735 22.848ZM109.135 20.472L109.61 21.3521L109.621 21.3462L109.135 20.472ZM115.903 20.472L115.418 21.3462L115.428 21.352L115.903 20.472ZM118.279 22.824L117.408 23.3143L117.414 23.3245L118.279 22.824ZM118.255 30L117.392 29.4953L117.389 29.4995L118.255 30ZM115.831 32.376L116.311 33.2534H116.311L115.831 32.376ZM116.287 29.088L115.425 28.5818L115.421 28.5888L115.417 28.5959L116.287 29.088ZM114.679 22.08L114.199 22.9571L114.207 22.9615L114.215 22.9658L114.679 22.08ZM110.287 22.08L110.76 22.9612L110.768 22.9571L110.287 22.08ZM108.703 23.712L109.582 24.1895L108.703 23.712ZM108.679 29.112L107.793 29.5746L107.797 29.5821L107.801 29.5895L108.679 29.112ZM110.263 30.768L109.774 31.6401L109.782 31.6447L109.79 31.6492L110.263 30.768ZM112.543 16.464L113.068 15.6126L112.545 15.2907L112.022 15.6109L112.543 16.464ZM109.207 18.504H108.207V20.2877L109.729 19.3571L109.207 18.504ZM109.207 16.776L108.695 15.9174L108.207 16.2084V16.776H109.207ZM112.543 14.784L113.059 13.9271L112.545 13.6182L112.031 13.9254L112.543 14.784ZM115.855 16.776H116.855V16.2105L116.371 15.9191L115.855 16.776ZM115.855 18.504L115.331 19.3554L116.855 20.2944V18.504H115.855ZM112.423 32.216C111.349 32.216 110.398 31.9737 109.549 31.5018L108.578 33.2502C109.744 33.8983 111.033 34.216 112.423 34.216V32.216ZM109.555 31.5052C108.727 31.0379 108.072 30.3798 107.583 29.5097L105.84 30.4903C106.502 31.6682 107.415 32.5941 108.572 33.2468L109.555 31.5052ZM107.592 29.5259C107.121 28.6523 106.871 27.6198 106.871 26.4H104.871C104.871 27.9002 105.181 29.2677 105.831 30.4741L107.592 29.5259ZM106.871 26.4C106.871 25.2027 107.126 24.1922 107.607 23.3383L105.864 22.3577C105.192 23.5518 104.871 24.9093 104.871 26.4H106.871ZM107.604 23.3427C108.108 22.4579 108.775 21.803 109.61 21.352L108.66 19.592C107.48 20.229 106.547 21.1581 105.866 22.3533L107.604 23.3427ZM109.621 21.3462C110.468 20.8754 111.427 20.632 112.519 20.632V18.632C111.116 18.632 109.818 18.9486 108.65 19.5978L109.621 21.3462ZM112.519 20.632C113.612 20.632 114.57 20.8754 115.418 21.3462L116.389 19.5978C115.22 18.9486 113.923 18.632 112.519 18.632V20.632ZM115.428 21.352C116.265 21.8038 116.922 22.4506 117.408 23.3143L119.151 22.3337C118.485 21.1494 117.557 20.2282 116.378 19.592L115.428 21.352ZM117.414 23.3245C117.905 24.1748 118.167 25.189 118.167 26.4H120.167C120.167 24.891 119.837 23.5212 119.145 22.3235L117.414 23.3245ZM118.167 26.4C118.167 27.606 117.899 28.6274 117.392 29.4953L119.119 30.5047C119.827 29.2926 120.167 27.914 120.167 26.4H118.167ZM117.389 29.4995C116.888 30.3671 116.212 31.0278 115.351 31.4986L116.311 33.2534C117.498 32.6042 118.439 31.6809 119.121 30.5005L117.389 29.4995ZM115.351 31.4986C114.485 31.9726 113.516 32.216 112.423 32.216V34.216C113.827 34.216 115.13 33.8994 116.311 33.2534L115.351 31.4986ZM112.423 32.296C113.371 32.296 114.269 32.0718 115.103 31.6258L114.16 29.8622C113.617 30.1522 113.044 30.296 112.423 30.296V32.296ZM115.103 31.6258C115.972 31.1609 116.657 30.4668 117.158 29.5801L115.417 28.5959C115.086 29.1812 114.666 29.5911 114.16 29.8622L115.103 31.6258ZM117.15 29.5942C117.691 28.6722 117.935 27.592 117.935 26.4H115.935C115.935 27.32 115.748 28.0318 115.425 28.5818L117.15 29.5942ZM117.935 26.4C117.935 25.2139 117.701 24.1391 117.182 23.2199L115.441 24.2041C115.753 24.7569 115.935 25.4741 115.935 26.4H117.935ZM117.182 23.2199C116.682 22.3361 116.005 21.6456 115.143 21.1942L114.215 22.9658C114.697 23.2184 115.108 23.6159 115.441 24.2041L117.182 23.2199ZM115.16 21.2029C114.337 20.7523 113.443 20.528 112.495 20.528V22.528C113.115 22.528 113.678 22.6717 114.199 22.9571L115.16 21.2029ZM112.495 20.528C111.535 20.528 110.633 20.7507 109.807 21.2029L110.768 22.9571C111.286 22.6733 111.855 22.528 112.495 22.528V20.528ZM109.814 21.1988C108.966 21.6542 108.306 22.3494 107.825 23.2345L109.582 24.1895C109.901 23.6026 110.297 23.2098 110.76 22.9612L109.814 21.1988ZM107.825 23.2345C107.327 24.1504 107.103 25.2198 107.103 26.4H109.103C109.103 25.4682 109.28 24.7456 109.582 24.1895L107.825 23.2345ZM107.103 26.4C107.103 27.5876 107.316 28.6602 107.793 29.5746L109.566 28.6494C109.275 28.0918 109.103 27.3564 109.103 26.4H107.103ZM107.801 29.5895C108.28 30.4717 108.935 31.1697 109.774 31.6401L110.752 29.8959C110.279 29.6303 109.878 29.2243 109.558 28.6345L107.801 29.5895ZM109.79 31.6492C110.6 32.0833 111.483 32.296 112.423 32.296V30.296C111.795 30.296 111.239 30.1567 110.736 29.8868L109.79 31.6492ZM112.022 15.6109L108.686 17.6509L109.729 19.3571L113.065 17.3171L112.022 15.6109ZM110.207 18.504V16.776H108.207V18.504H110.207ZM109.72 17.6346L113.056 15.6426L112.031 13.9254L108.695 15.9174L109.72 17.6346ZM112.028 15.6409L115.34 17.6329L116.371 15.9191L113.059 13.9271L112.028 15.6409ZM114.855 16.776V18.504H116.855V16.776H114.855ZM116.38 17.6526L113.068 15.6126L112.019 17.3154L115.331 19.3554L116.38 17.6526ZM131.927 21.072L131.225 21.7849L131.231 21.7906L131.927 21.072ZM133.415 33V34H134.415V33H133.415ZM131.255 33H130.255V34H131.255V33ZM130.271 22.56L129.539 23.2418L129.547 23.2501L130.271 22.56ZM124.823 22.584L124.1 21.8931L124.092 21.9017L124.823 22.584ZM123.815 33V34H124.815V33H123.815ZM121.631 33H120.631V34H121.631V33ZM121.631 19.848V18.848H120.631V19.848H121.631ZM123.815 19.848H124.815V18.848H123.815V19.848ZM123.815 21.72H122.815V25.1248L124.656 22.2608L123.815 21.72ZM125.567 20.16L125.127 19.2617L125.12 19.2656L125.567 20.16ZM128.039 20.608C129.419 20.608 130.449 21.0207 131.225 21.7848L132.628 20.3592C131.421 19.1713 129.859 18.608 128.039 18.608V20.608ZM131.231 21.7906C131.972 22.5073 132.415 23.6042 132.415 25.248H134.415C134.415 23.2438 133.866 21.5567 132.622 20.3534L131.231 21.7906ZM132.415 25.248V33H134.415V25.248H132.415ZM133.415 32H131.255V34H133.415V32ZM132.255 33V25.56H130.255V33H132.255ZM132.255 25.56C132.255 24.09 131.886 22.8049 130.995 21.8699L129.547 23.2501C129.968 23.6911 130.255 24.406 130.255 25.56H132.255ZM131.002 21.8783C130.123 20.9346 128.942 20.504 127.583 20.504V22.504C128.496 22.504 129.107 22.7774 129.539 23.2417L131.002 21.8783ZM127.583 20.504C126.204 20.504 125.006 20.9443 124.1 21.8931L125.546 23.2749C126.015 22.7837 126.657 22.504 127.583 22.504V20.504ZM124.092 21.9017C123.188 22.8695 122.815 24.1998 122.815 25.728H124.815C124.815 24.5042 125.113 23.7385 125.554 23.2663L124.092 21.9017ZM122.815 25.728V33H124.815V25.728H122.815ZM123.815 32H121.631V34H123.815V32ZM122.631 33V19.848H120.631V33H122.631ZM121.631 20.848H123.815V18.848H121.631V20.848ZM122.815 19.848V21.72H124.815V19.848H122.815ZM124.656 22.2608C124.988 21.7446 125.434 21.3446 126.014 21.0544L125.12 19.2656C124.228 19.7114 123.506 20.3514 122.974 21.1792L124.656 22.2608ZM126.006 21.0582C126.612 20.7618 127.284 20.608 128.039 20.608V18.608C127.001 18.608 126.026 18.8222 125.127 19.2618L126.006 21.0582ZM144.974 20.376L144.469 21.2392L144.476 21.2433L144.974 20.376ZM146.894 22.248L146.019 22.7321L147.894 22.248H146.894ZM146.894 19.848V18.848H145.894V19.848H146.894ZM149.102 19.848H150.102V18.848H149.102V19.848ZM148.334 36.48L147.459 35.9969L147.455 36.0032L148.334 36.48ZM146.126 38.688L145.644 37.8118L145.638 37.8152L146.126 38.688ZM138.494 38.256L137.916 39.072L138.494 38.256ZM136.454 34.92V33.92H135.296L135.465 35.0661L136.454 34.92ZM138.614 34.92L139.572 34.6327L139.358 33.92H138.614V34.92ZM140.102 36.84L140.653 36.0052L140.647 36.0011L140.64 35.9971L140.102 36.84ZM145.742 36.456L145.043 35.7415L145.035 35.7489L145.742 36.456ZM146.894 30.528H147.894V26.7105L146.023 30.0377L146.894 30.528ZM144.974 32.448L144.457 31.5919L144.974 32.448ZM138.806 32.352L138.285 33.2057L138.292 33.2095L138.806 32.352ZM136.574 29.928L137.46 29.4645L136.574 29.928ZM136.574 22.848L137.454 23.3229L137.457 23.3172L136.574 22.848ZM138.806 20.472L138.302 19.6082L138.296 19.6119L138.806 20.472ZM144.662 22.128L144.151 22.9873L144.163 22.9944L144.175 23.0012L144.662 22.128ZM140.198 22.104L139.702 21.2358V21.2358L140.198 22.104ZM138.59 23.784L139.469 24.2615V24.2615L138.59 23.784ZM138.59 29.016L137.707 29.4856L137.712 29.4935L138.59 29.016ZM140.198 30.72L139.687 31.5793L139.695 31.5838L139.702 31.5882L140.198 30.72ZM144.662 30.72L145.159 31.5883L145.165 31.5845L144.662 30.72ZM146.294 29.016L147.173 29.4935L147.177 29.4856L146.294 29.016ZM141.998 20.632C142.985 20.632 143.797 20.846 144.469 21.2392L145.479 19.5128C144.455 18.914 143.284 18.632 141.998 18.632V20.632ZM144.476 21.2433C145.208 21.6631 145.705 22.1638 146.019 22.7321L147.769 21.7639C147.252 20.8282 146.469 20.0809 145.472 19.5087L144.476 21.2433ZM147.894 22.248V19.848H145.894V22.248H147.894ZM146.894 20.848H149.102V18.848H146.894V20.848ZM148.102 19.848V33.288H150.102V19.848H148.102ZM148.102 33.288C148.102 34.3417 147.879 35.2355 147.459 35.9969L149.21 36.9631C149.814 35.8685 150.102 34.6343 150.102 33.288H148.102ZM147.455 36.0032C147.037 36.7752 146.44 37.3742 145.644 37.8118L146.608 39.5642C147.733 38.9458 148.608 38.0728 149.213 36.9568L147.455 36.0032ZM145.638 37.8152C144.867 38.2467 143.936 38.48 142.814 38.48V40.48C144.22 40.48 145.498 40.1853 146.615 39.5608L145.638 37.8152ZM142.814 38.48C141.246 38.48 140.021 38.1117 139.072 37.44L137.916 39.072C139.272 40.0323 140.926 40.48 142.814 40.48V38.48ZM139.072 37.44C138.145 36.7832 137.612 35.9143 137.444 34.7739L135.465 35.0661C135.713 36.7417 136.54 38.0968 137.916 39.072L139.072 37.44ZM136.454 35.92H138.614V33.92H136.454V35.92ZM137.657 35.2073C137.97 36.2532 138.625 37.0835 139.564 37.6829L140.64 35.9971C140.075 35.6365 139.738 35.1868 139.572 34.6327L137.657 35.2073ZM139.552 37.6748C140.494 38.2961 141.597 38.584 142.814 38.584V36.584C141.92 36.584 141.215 36.3759 140.653 36.0052L139.552 37.6748ZM142.814 38.584C144.242 38.584 145.485 38.1274 146.449 37.1631L145.035 35.7489C144.496 36.2886 143.786 36.584 142.814 36.584V38.584ZM146.442 37.1705C147.45 36.1836 147.894 34.8416 147.894 33.288H145.894C145.894 34.4544 145.571 35.2244 145.043 35.7415L146.442 37.1705ZM147.894 33.288V30.528H145.894V33.288H147.894ZM146.023 30.0377C145.686 30.6373 145.176 31.1579 144.457 31.5919L145.491 33.3041C146.468 32.7141 147.239 31.9547 147.766 31.0183L146.023 30.0377ZM144.457 31.5919C143.787 31.9966 142.979 32.216 141.998 32.216V34.216C143.289 34.216 144.465 33.9234 145.491 33.3041L144.457 31.5919ZM141.998 32.216C141.003 32.216 140.119 31.9731 139.321 31.4945L138.292 33.2095C139.414 33.8829 140.657 34.216 141.998 34.216V32.216ZM139.327 31.4984C138.548 31.0227 137.926 30.354 137.46 29.4645L135.688 30.3915C136.311 31.582 137.177 32.5293 138.285 33.2056L139.327 31.4984ZM137.46 29.4645C137.001 28.5854 136.758 27.564 136.758 26.376H134.758C134.758 27.844 135.06 29.1906 135.688 30.3915L137.46 29.4645ZM136.758 26.376C136.758 25.169 137.002 24.1616 137.454 23.3229L135.694 22.3731C135.059 23.5504 134.758 24.895 134.758 26.376H136.758ZM137.457 23.3172C137.92 22.4457 138.539 21.7931 139.317 21.3321L138.296 19.6119C137.185 20.2709 136.316 21.2023 135.691 22.3788L137.457 23.3172ZM139.31 21.3358C140.109 20.8696 140.998 20.632 141.998 20.632V18.632C140.663 18.632 139.423 18.9544 138.302 19.6082L139.31 21.3358ZM147.894 26.4C147.894 25.2719 147.666 24.2379 147.173 23.3305L145.416 24.2855C145.723 24.8501 145.894 25.5441 145.894 26.4H147.894ZM147.173 23.3305C146.689 22.4392 146.014 21.7369 145.15 21.2548L144.175 23.0012C144.687 23.2871 145.1 23.7048 145.416 24.2855L147.173 23.3305ZM145.174 21.2687C144.34 20.7725 143.418 20.528 142.43 20.528V22.528C143.074 22.528 143.64 22.6835 144.151 22.9873L145.174 21.2687ZM142.43 20.528C141.45 20.528 140.534 20.7607 139.702 21.2358L140.694 22.9722C141.207 22.6793 141.779 22.528 142.43 22.528V20.528ZM139.702 21.2358C138.856 21.7195 138.193 22.4212 137.712 23.3065L139.469 24.2615C139.788 23.6748 140.197 23.2565 140.694 22.9722L139.702 21.2358ZM137.712 23.3065C137.219 24.2139 136.99 25.2479 136.99 26.376H138.99C138.99 25.5201 139.162 24.8261 139.469 24.2615L137.712 23.3065ZM136.99 26.376C136.99 27.5178 137.218 28.5647 137.707 29.4856L139.473 28.5464C139.163 27.9633 138.99 27.2502 138.99 26.376H136.99ZM137.712 29.4935C138.191 30.3758 138.849 31.0808 139.687 31.5793L140.71 29.8607C140.203 29.5592 139.789 29.1282 139.469 28.5385L137.712 29.4935ZM139.702 31.5882C140.534 32.0633 141.45 32.296 142.43 32.296V30.296C141.779 30.296 141.207 30.1447 140.694 29.8518L139.702 31.5882ZM142.43 32.296C143.411 32.296 144.327 32.0633 145.159 31.5882L144.166 29.8518C143.654 30.1447 143.082 30.296 142.43 30.296V32.296ZM145.165 31.5845C146.02 31.0875 146.69 30.3817 147.173 29.4935L145.416 28.5385C145.098 29.1223 144.681 29.5525 144.16 29.8555L145.165 31.5845ZM147.177 29.4856C147.666 28.5669 147.894 27.5287 147.894 26.4H145.894C145.894 27.2553 145.723 27.9611 145.411 28.5464L147.177 29.4856ZM161.04 21.648V20.648H160.04V21.648H161.04ZM161.448 30.768L160.74 31.4751L160.751 31.4858L160.762 31.4962L161.448 30.768ZM164.472 31.152H165.472V30.152H164.472V31.152ZM164.472 33V34H165.472V33H164.472ZM158.856 21.648H159.856V20.648H158.856V21.648ZM157.152 21.648H156.152V22.648H157.152V21.648ZM157.152 19.848V18.848H156.152V19.848H157.152ZM158.856 19.848V20.848H159.856V19.848H158.856ZM158.856 16.536V15.536H157.856V16.536H158.856ZM161.04 16.536H162.04V15.536H161.04V16.536ZM161.04 19.848H160.04V20.848H161.04V19.848ZM164.472 19.848H165.472V18.848H164.472V19.848ZM164.472 21.648V22.648H165.472V21.648H164.472ZM160.04 21.648V29.4H162.04V21.648H160.04ZM160.04 29.4C160.04 30.1386 160.189 30.9238 160.74 31.4751L162.155 30.0609C162.161 30.067 162.131 30.0423 162.1 29.9362C162.067 29.8266 162.04 29.6543 162.04 29.4H160.04ZM160.762 31.4962C161.32 32.0216 162.121 32.152 162.864 32.152V30.152C162.586 30.152 162.393 30.1249 162.267 30.0909C162.142 30.057 162.118 30.0258 162.133 30.0398L160.762 31.4962ZM162.864 32.152H164.472V30.152H162.864V32.152ZM163.472 31.152V33H165.472V31.152H163.472ZM164.472 32H162.504V34H164.472V32ZM162.504 32C161.422 32 160.798 31.7493 160.445 31.4245L159.09 32.8955C159.953 33.6907 161.153 34 162.504 34V32ZM160.445 31.4245C160.132 31.1365 159.856 30.552 159.856 29.4H157.856C157.856 30.808 158.187 32.0635 159.09 32.8955L160.445 31.4245ZM159.856 29.4V21.648H157.856V29.4H159.856ZM158.856 20.648H157.152V22.648H158.856V20.648ZM158.152 21.648V19.848H156.152V21.648H158.152ZM157.152 20.848H158.856V18.848H157.152V20.848ZM159.856 19.848V16.536H157.856V19.848H159.856ZM158.856 17.536H161.04V15.536H158.856V17.536ZM160.04 16.536V19.848H162.04V16.536H160.04ZM161.04 20.848H164.472V18.848H161.04V20.848ZM163.472 19.848V21.648H165.472V19.848H163.472ZM164.472 20.648H161.04V22.648H164.472V20.648ZM166.782 17.28L167.489 16.5729L166.782 17.28ZM166.782 15.168L167.489 15.8751L166.782 15.168ZM168.846 15.168L168.119 15.8546L168.129 15.865L168.139 15.8751L168.846 15.168ZM168.846 17.28L168.139 16.5729L168.129 16.583L168.119 16.5934L168.846 17.28ZM168.894 19.848H169.894V18.848H168.894V19.848ZM168.894 33V34H169.894V33H168.894ZM166.71 33H165.71V34H166.71V33ZM166.71 19.848V18.848H165.71V19.848H166.71ZM167.838 16.712C167.681 16.712 167.585 16.6689 167.489 16.5729L166.075 17.9871C166.555 18.4671 167.163 18.712 167.838 18.712V16.712ZM167.489 16.5729C167.393 16.4769 167.35 16.3811 167.35 16.224H165.35C165.35 16.8989 165.595 17.5071 166.075 17.9871L167.489 16.5729ZM167.35 16.224C167.35 16.0669 167.393 15.9711 167.489 15.8751L166.075 14.4609C165.595 14.9409 165.35 15.5491 165.35 16.224H167.35ZM167.489 15.8751C167.585 15.7791 167.681 15.736 167.838 15.736V13.736C167.163 13.736 166.555 13.9809 166.075 14.4609L167.489 15.8751ZM167.838 15.736C167.966 15.736 168.038 15.7688 168.119 15.8546L169.573 14.4814C169.11 13.9912 168.51 13.736 167.838 13.736V15.736ZM168.139 15.8751C168.235 15.9711 168.278 16.0669 168.278 16.224H170.278C170.278 15.5491 170.033 14.9409 169.553 14.4609L168.139 15.8751ZM168.278 16.224C168.278 16.3811 168.235 16.4769 168.139 16.5729L169.553 17.9871C170.033 17.5071 170.278 16.8989 170.278 16.224H168.278ZM168.119 16.5934C168.038 16.6792 167.966 16.712 167.838 16.712V18.712C168.51 18.712 169.11 18.4568 169.573 17.9666L168.119 16.5934ZM167.894 19.848V33H169.894V19.848H167.894ZM168.894 32H166.71V34H168.894V32ZM167.71 33V19.848H165.71V33H167.71ZM166.71 20.848H168.894V18.848H166.71V20.848ZM182.504 21.072L181.803 21.7849L181.809 21.7906L182.504 21.072ZM183.992 33V34H184.992V33H183.992ZM181.832 33H180.832V34H181.832V33ZM180.848 22.56L180.116 23.2418L180.124 23.2501L180.848 22.56ZM175.4 22.584L174.677 21.8931L174.669 21.9017L175.4 22.584ZM174.392 33V34H175.392V33H174.392ZM172.208 33H171.208V34H172.208V33ZM172.208 19.848V18.848H171.208V19.848H172.208ZM174.392 19.848H175.392V18.848H174.392V19.848ZM174.392 21.72H173.392V25.1248L175.233 22.2608L174.392 21.72ZM176.144 20.16L175.704 19.2617L175.697 19.2656L176.144 20.16ZM178.616 20.608C179.996 20.608 181.026 21.0207 181.803 21.7848L183.205 20.3592C181.998 19.1713 180.436 18.608 178.616 18.608V20.608ZM181.809 21.7906C182.549 22.5073 182.992 23.6042 182.992 25.248H184.992C184.992 23.2438 184.443 21.5567 183.199 20.3534L181.809 21.7906ZM182.992 25.248V33H184.992V25.248H182.992ZM183.992 32H181.832V34H183.992V32ZM182.832 33V25.56H180.832V33H182.832ZM182.832 25.56C182.832 24.09 182.463 22.8049 181.572 21.8699L180.124 23.2501C180.545 23.6911 180.832 24.406 180.832 25.56H182.832ZM181.58 21.8783C180.7 20.9346 179.519 20.504 178.16 20.504V22.504C179.073 22.504 179.684 22.7774 180.116 23.2417L181.58 21.8783ZM178.16 20.504C176.782 20.504 175.584 20.9443 174.677 21.8931L176.123 23.2749C176.592 22.7837 177.234 22.504 178.16 22.504V20.504ZM174.669 21.9017C173.766 22.8695 173.392 24.1998 173.392 25.728H175.392C175.392 24.5042 175.69 23.7385 176.131 23.2663L174.669 21.9017ZM173.392 25.728V33H175.392V25.728H173.392ZM174.392 32H172.208V34H174.392V32ZM173.208 33V19.848H171.208V33H173.208ZM172.208 20.848H174.392V18.848H172.208V20.848ZM173.392 19.848V21.72H175.392V19.848H173.392ZM175.233 22.2608C175.565 21.7446 176.011 21.3446 176.591 21.0544L175.697 19.2656C174.805 19.7114 174.083 20.3514 173.551 21.1792L175.233 22.2608ZM176.584 21.0582C177.189 20.7618 177.861 20.608 178.616 20.608V18.608C177.579 18.608 176.603 18.8222 175.704 19.2618L176.584 21.0582ZM193.142 22.848L194.022 23.3229L194.025 23.3172L193.142 22.848ZM195.398 20.472L194.9 19.6046L194.894 19.6082L195.398 20.472ZM202.718 20.808L202.116 21.6065L202.122 21.6109L202.718 20.808ZM204.806 24.072V25.072H206.076L205.778 23.8374L204.806 24.072ZM202.454 24.072L201.491 24.3416L201.696 25.072H202.454V24.072ZM201.134 22.176L200.547 22.9857L200.557 22.9924L201.134 22.176ZM195.71 22.776L196.451 23.4473L196.457 23.4404L195.71 22.776ZM195.71 30.072L196.457 29.4076L195.71 30.072ZM201.134 30.696L201.707 31.5152L201.134 30.696ZM202.454 28.776V27.776H201.702L201.493 28.4988L202.454 28.776ZM204.806 28.776L205.773 29.0294L206.102 27.776H204.806V28.776ZM202.694 32.016L203.298 32.8131L203.305 32.8073L202.694 32.016ZM195.398 32.376L194.894 33.2398L194.9 33.2434L195.398 32.376ZM193.142 30L192.259 30.4692L193.142 30ZM193.326 26.4C193.326 25.1748 193.57 24.16 194.022 23.3229L192.262 22.3731C191.626 23.552 191.326 24.9052 191.326 26.4H193.326ZM194.025 23.3172C194.486 22.4499 195.11 21.7979 195.902 21.3358L194.894 19.6082C193.766 20.2661 192.886 21.1981 192.259 22.3788L194.025 23.3172ZM195.896 21.3394C196.704 20.8755 197.641 20.632 198.734 20.632V18.632C197.331 18.632 196.044 18.9485 194.9 19.6046L195.896 21.3394ZM198.734 20.632C200.186 20.632 201.288 20.9821 202.116 21.6065L203.32 20.0095C202.068 19.0659 200.514 18.632 198.734 18.632V20.632ZM202.122 21.6109C202.973 22.2426 203.548 23.1206 203.834 24.3066L205.778 23.8374C205.392 22.2394 204.575 20.9414 203.314 20.0051L202.122 21.6109ZM204.806 23.072H202.454V25.072H204.806V23.072ZM203.417 23.8024C203.133 22.7894 202.562 21.961 201.711 21.3596L200.557 22.9924C201.018 23.319 201.327 23.7546 201.491 24.3416L203.417 23.8024ZM201.721 21.3664C200.876 20.7541 199.859 20.48 198.734 20.48V22.48C199.529 22.48 200.112 22.6699 200.547 22.9856L201.721 21.3664ZM198.734 20.48C197.226 20.48 195.937 21.0157 194.963 22.1116L196.457 23.4404C197.019 22.8083 197.746 22.48 198.734 22.48V20.48ZM194.969 22.1047C193.981 23.1954 193.558 24.6765 193.558 26.4H195.558C195.558 24.9874 195.903 24.0526 196.451 23.4473L194.969 22.1047ZM193.558 26.4C193.558 28.1377 193.98 29.631 194.963 30.7364L196.457 29.4076C195.904 28.785 195.558 27.8303 195.558 26.4H193.558ZM194.963 30.7364C195.937 31.8323 197.226 32.368 198.734 32.368V30.368C197.746 30.368 197.019 30.0397 196.457 29.4076L194.963 30.7364ZM198.734 32.368C199.852 32.368 200.864 32.1055 201.707 31.5152L200.561 29.8768C200.124 30.1825 199.536 30.368 198.734 30.368V32.368ZM201.707 31.5152C202.555 30.9218 203.119 30.0795 203.415 29.0532L201.493 28.4988C201.309 29.1365 200.993 29.5742 200.561 29.8768L201.707 31.5152ZM202.454 29.776H204.806V27.776H202.454V29.776ZM203.839 28.5226C203.54 29.6624 202.956 30.5496 202.083 31.2247L203.305 32.8073C204.544 31.8504 205.368 30.5776 205.773 29.0294L203.839 28.5226ZM202.09 31.2189C201.24 31.863 200.144 32.216 198.734 32.216V34.216C200.492 34.216 202.036 33.769 203.298 32.8131L202.09 31.2189ZM198.734 32.216C197.641 32.216 196.704 31.9725 195.896 31.5086L194.9 33.2434C196.044 33.8995 197.331 34.216 198.734 34.216V32.216ZM195.902 31.5122C195.11 31.0501 194.486 30.3981 194.025 29.5308L192.259 30.4692C192.886 31.6499 193.766 32.5819 194.894 33.2398L195.902 31.5122ZM194.025 29.5308C193.571 28.676 193.326 27.6429 193.326 26.4H191.326C191.326 27.9091 191.625 29.276 192.259 30.4692L194.025 29.5308ZM207.312 22.848L208.192 23.3229L208.195 23.3172L207.312 22.848ZM209.544 20.472L209.04 19.6082L209.034 19.6119L209.544 20.472ZM215.736 20.376L215.231 21.2392V21.2392L215.736 20.376ZM217.632 22.248L216.757 22.7321L218.632 22.248H217.632ZM217.632 19.848V18.848H216.632V19.848H217.632ZM219.84 19.848H220.84V18.848H219.84V19.848ZM219.84 33V34H220.84V33H219.84ZM217.632 33H216.632V34H217.632V33ZM217.632 30.552H218.632V26.7345L216.761 30.0617L217.632 30.552ZM215.688 32.472L216.193 33.3352L216.198 33.3323L215.688 32.472ZM209.544 32.352L209.023 33.2056H209.023L209.544 32.352ZM207.312 29.928L208.198 29.4645L207.312 29.928ZM215.4 22.128L214.889 22.9873L214.901 22.9944L214.913 23.0012L215.4 22.128ZM210.936 22.104L210.44 21.2358V21.2358L210.936 22.104ZM209.328 23.784L210.207 24.2615V24.2615L209.328 23.784ZM209.328 29.016L208.445 29.4856L208.449 29.4935L209.328 29.016ZM210.936 30.72L210.425 31.5793L210.432 31.5838L210.44 31.5882L210.936 30.72ZM215.4 30.72L215.896 31.5883L215.903 31.5845L215.4 30.72ZM217.032 29.016L217.911 29.4935L217.915 29.4856L217.032 29.016ZM215.928 16.128L216.4 17.0097L216.928 16.727V16.128H215.928ZM210.816 18.864H209.816V20.5334L211.288 19.7457L210.816 18.864ZM210.816 17.232L210.31 16.3695L209.816 16.6594V17.232H210.816ZM215.928 14.232H216.928V12.4857L215.422 13.3695L215.928 14.232ZM207.496 26.376C207.496 25.169 207.74 24.1616 208.192 23.3229L206.432 22.3731C205.797 23.5504 205.496 24.895 205.496 26.376H207.496ZM208.195 23.3172C208.658 22.4457 209.277 21.7931 210.054 21.3321L209.034 19.6119C207.923 20.2709 207.054 21.2023 206.429 22.3788L208.195 23.3172ZM210.048 21.3358C210.847 20.8696 211.736 20.632 212.736 20.632V18.632C211.4 18.632 210.161 18.9544 209.04 19.6082L210.048 21.3358ZM212.736 20.632C213.742 20.632 214.561 20.8472 215.231 21.2392L216.241 19.5128C215.215 18.9128 214.035 18.632 212.736 18.632V20.632ZM215.231 21.2392C215.947 21.6576 216.44 22.1589 216.757 22.7321L218.507 21.7639C217.992 20.8331 217.222 20.0864 216.241 19.5128L215.231 21.2392ZM218.632 22.248V19.848H216.632V22.248H218.632ZM217.632 20.848H219.84V18.848H217.632V20.848ZM218.84 19.848V33H220.84V19.848H218.84ZM219.84 32H217.632V34H219.84V32ZM218.632 33V30.552H216.632V33H218.632ZM216.761 30.0617C216.426 30.6564 215.913 31.1765 215.178 31.6117L216.198 33.3323C217.191 32.7435 217.974 31.9836 218.504 31.0423L216.761 30.0617ZM215.183 31.6088C214.511 32.002 213.699 32.216 212.712 32.216V34.216C213.997 34.216 215.169 33.934 216.193 33.3352L215.183 31.6088ZM212.712 32.216C211.717 32.216 210.843 31.9732 210.065 31.4984L209.023 33.2056C210.133 33.8828 211.371 34.216 212.712 34.216V32.216ZM210.065 31.4984C209.285 31.0227 208.663 30.354 208.198 29.4645L206.426 30.3915C207.049 31.582 207.915 32.5293 209.023 33.2056L210.065 31.4984ZM208.198 29.4645C207.738 28.5854 207.496 27.564 207.496 26.376H205.496C205.496 27.844 205.798 29.1906 206.426 30.3915L208.198 29.4645ZM218.632 26.4C218.632 25.2719 218.404 24.2379 217.911 23.3305L216.153 24.2855C216.46 24.8501 216.632 25.5441 216.632 26.4H218.632ZM217.911 23.3305C217.426 22.4392 216.751 21.7369 215.887 21.2548L214.913 23.0012C215.425 23.2871 215.838 23.7048 216.153 24.2855L217.911 23.3305ZM215.912 21.2687C215.078 20.7725 214.156 20.528 213.168 20.528V22.528C213.812 22.528 214.378 22.6835 214.889 22.9873L215.912 21.2687ZM213.168 20.528C212.188 20.528 211.271 20.7607 210.44 21.2358L211.432 22.9722C211.945 22.6793 212.516 22.528 213.168 22.528V20.528ZM210.44 21.2358C209.593 21.7195 208.931 22.4212 208.449 23.3065L210.207 24.2615C210.526 23.6748 210.935 23.2565 211.432 22.9722L210.44 21.2358ZM208.449 23.3065C207.956 24.2139 207.728 25.2479 207.728 26.376H209.728C209.728 25.5201 209.9 24.8261 210.207 24.2615L208.449 23.3065ZM207.728 26.376C207.728 27.5178 207.955 28.5647 208.445 29.4856L210.211 28.5464C209.901 27.9633 209.728 27.2502 209.728 26.376H207.728ZM208.449 29.4935C208.929 30.3758 209.587 31.0808 210.425 31.5793L211.448 29.8607C210.941 29.5592 210.527 29.1282 210.207 28.5385L208.449 29.4935ZM210.44 31.5882C211.271 32.0633 212.188 32.296 213.168 32.296V30.296C212.516 30.296 211.945 30.1447 211.432 29.8518L210.44 31.5882ZM213.168 32.296C214.148 32.296 215.065 32.0633 215.896 31.5882L214.904 29.8518C214.391 30.1447 213.82 30.296 213.168 30.296V32.296ZM215.903 31.5845C216.758 31.0875 217.428 30.3817 217.911 29.4935L216.153 28.5385C215.836 29.1223 215.419 29.5525 214.897 29.8555L215.903 31.5845ZM217.915 29.4856C218.404 28.5669 218.632 27.5287 218.632 26.4H216.632C216.632 27.2553 216.461 27.9611 216.149 28.5464L217.915 29.4856ZM215.456 15.2463L210.344 17.9823L211.288 19.7457L216.4 17.0097L215.456 15.2463ZM211.816 18.864V17.232H209.816V18.864H211.816ZM211.322 18.0945L216.434 15.0945L215.422 13.3695L210.31 16.3695L211.322 18.0945ZM214.928 14.232V16.128H216.928V14.232H214.928ZM239.409 21.072L238.708 21.7849L238.714 21.7906L239.409 21.072ZM240.897 33V34H241.897V33H240.897ZM238.737 33H237.737V34H238.737V33ZM237.753 22.56L237.022 23.2418L237.03 23.2501L237.753 22.56ZM232.305 22.584L231.582 21.8931L231.574 21.9017L232.305 22.584ZM231.297 33V34H232.297V33H231.297ZM229.113 33H228.113V34H229.113V33ZM229.113 19.848V18.848H228.113V19.848H229.113ZM231.297 19.848H232.297V18.848H231.297V19.848ZM231.297 21.72H230.297V25.1248L232.138 22.2608L231.297 21.72ZM233.049 20.16L232.61 19.2617L232.602 19.2656L233.049 20.16ZM235.521 20.608C236.901 20.608 237.931 21.0207 238.708 21.7848L240.111 20.3592C238.903 19.1713 237.341 18.608 235.521 18.608V20.608ZM238.714 21.7906C239.454 22.5073 239.897 23.6042 239.897 25.248H241.897C241.897 23.2438 241.348 21.5567 240.105 20.3534L238.714 21.7906ZM239.897 25.248V33H241.897V25.248H239.897ZM240.897 32H238.737V34H240.897V32ZM239.737 33V25.56H237.737V33H239.737ZM239.737 25.56C239.737 24.09 239.369 22.8049 238.477 21.8699L237.03 23.2501C237.45 23.6911 237.737 24.406 237.737 25.56H239.737ZM238.485 21.8783C237.606 20.9346 236.424 20.504 235.065 20.504V22.504C235.978 22.504 236.589 22.7774 237.022 23.2417L238.485 21.8783ZM235.065 20.504C233.687 20.504 232.489 20.9443 231.582 21.8931L233.028 23.2749C233.498 22.7837 234.14 22.504 235.065 22.504V20.504ZM231.574 21.9017C230.671 22.8695 230.297 24.1998 230.297 25.728H232.297C232.297 24.5042 232.596 23.7385 233.036 23.2663L231.574 21.9017ZM230.297 25.728V33H232.297V25.728H230.297ZM231.297 32H229.113V34H231.297V32ZM230.113 33V19.848H228.113V33H230.113ZM229.113 20.848H231.297V18.848H229.113V20.848ZM230.297 19.848V21.72H232.297V19.848H230.297ZM232.138 22.2608C232.47 21.7446 232.916 21.3446 233.497 21.0544L232.602 19.2656C231.71 19.7114 230.988 20.3514 230.456 21.1792L232.138 22.2608ZM233.489 21.0582C234.094 20.7618 234.767 20.608 235.521 20.608V18.608C234.484 18.608 233.508 18.8222 232.61 19.2618L233.489 21.0582ZM253.273 20.256L252.798 21.1359L252.805 21.1396L252.812 21.1432L253.273 20.256ZM255.145 22.152L254.261 22.6191L254.264 22.6256L254.268 22.632L255.145 22.152ZM255.841 33V34H256.841V33H255.841ZM253.681 33H252.681V34H253.681V33ZM252.697 22.56L251.965 23.2418L251.973 23.2501L252.697 22.56ZM247.249 22.584L246.526 21.8931L246.518 21.9017L247.249 22.584ZM246.241 33V34H247.241V33H246.241ZM244.057 33H243.057V34H244.057V33ZM244.057 15.24V14.24H243.057V15.24H244.057ZM246.241 15.24H247.241V14.24H246.241V15.24ZM246.241 21.72H245.241V25.1248L247.082 22.2608L246.241 21.72ZM248.017 20.16L247.585 19.2582L247.577 19.2618L248.017 20.16ZM250.585 20.608C251.426 20.608 252.157 20.7898 252.798 21.1359L253.748 19.3761C252.789 18.8582 251.727 18.608 250.585 18.608V20.608ZM252.812 21.1432C253.419 21.4593 253.901 21.9388 254.261 22.6191L256.029 21.6849C255.492 20.6692 254.726 19.8847 253.734 19.3688L252.812 21.1432ZM254.268 22.632C254.633 23.2996 254.841 24.1573 254.841 25.248H256.841C256.841 23.9067 256.585 22.7004 256.022 21.672L254.268 22.632ZM254.841 25.248V33H256.841V25.248H254.841ZM255.841 32H253.681V34H255.841V32ZM254.681 33V25.56H252.681V33H254.681ZM254.681 25.56C254.681 24.09 254.312 22.8049 253.421 21.8699L251.973 23.2501C252.394 23.6911 252.681 24.406 252.681 25.56H254.681ZM253.428 21.8783C252.549 20.9346 251.368 20.504 250.009 20.504V22.504C250.922 22.504 251.533 22.7774 251.965 23.2417L253.428 21.8783ZM250.009 20.504C248.63 20.504 247.433 20.9443 246.526 21.8931L247.972 23.2749C248.441 22.7837 249.083 22.504 250.009 22.504V20.504ZM246.518 21.9017C245.615 22.8695 245.241 24.1998 245.241 25.728H247.241C247.241 24.5042 247.539 23.7385 247.98 23.2663L246.518 21.9017ZM245.241 25.728V33H247.241V25.728H245.241ZM246.241 32H244.057V34H246.241V32ZM245.057 33V15.24H243.057V33H245.057ZM244.057 16.24H246.241V14.24H244.057V16.24ZM245.241 15.24V21.72H247.241V15.24H245.241ZM247.082 22.2608C247.41 21.7499 247.86 21.35 248.456 21.0582L247.577 19.2618C246.67 19.706 245.935 20.3461 245.4 21.1792L247.082 22.2608ZM248.449 21.0618C249.068 20.7652 249.774 20.608 250.585 20.608V18.608C249.508 18.608 248.502 18.8188 247.585 19.2582L248.449 21.0618ZM259 22.848L259.88 23.3229L259.884 23.3172L259 22.848ZM261.232 20.472L260.729 19.6082L260.722 19.6119L261.232 20.472ZM267.424 20.376L266.92 21.2392V21.2392L267.424 20.376ZM269.32 22.248L268.445 22.7321L270.32 22.248H269.32ZM269.32 19.848V18.848H268.32V19.848H269.32ZM271.528 19.848H272.528V18.848H271.528V19.848ZM271.528 33V34H272.528V33H271.528ZM269.32 33H268.32V34H269.32V33ZM269.32 30.552H270.32V26.7345L268.449 30.0617L269.32 30.552ZM267.376 32.472L267.881 33.3352L267.886 33.3323L267.376 32.472ZM261.232 32.352L260.712 33.2056H260.712L261.232 32.352ZM259 29.928L259.887 29.4645L259 29.928ZM267.088 22.128L266.577 22.9873L266.589 22.9944L266.601 23.0012L267.088 22.128ZM262.624 22.104L262.128 21.2358V21.2358L262.624 22.104ZM261.016 23.784L261.895 24.2615V24.2615L261.016 23.784ZM261.016 29.016L260.134 29.4856L260.138 29.4935L261.016 29.016ZM262.624 30.72L262.113 31.5793L262.121 31.5838L262.128 31.5882L262.624 30.72ZM267.088 30.72L267.585 31.5883L267.591 31.5845L267.088 30.72ZM268.72 29.016L269.599 29.4935L269.603 29.4856L268.72 29.016ZM265.288 16.632L265.813 15.7806L265.29 15.4587L264.767 15.7789L265.288 16.632ZM261.952 18.672H260.952V20.4557L262.474 19.5251L261.952 18.672ZM261.952 16.944L261.44 16.0854L260.952 16.3764V16.944H261.952ZM265.288 14.952L265.804 14.0951L265.29 13.7862L264.776 14.0934L265.288 14.952ZM268.6 16.944H269.6V16.3785L269.116 16.0871L268.6 16.944ZM268.6 18.672L268.076 19.5234L269.6 20.4624V18.672H268.6ZM259.184 26.376C259.184 25.169 259.428 24.1616 259.88 23.3229L258.12 22.3731C257.485 23.5504 257.184 24.895 257.184 26.376H259.184ZM259.884 23.3172C260.347 22.4457 260.965 21.7931 261.743 21.3321L260.722 19.6119C259.611 20.2709 258.742 21.2023 258.117 22.3788L259.884 23.3172ZM261.736 21.3358C262.535 20.8696 263.424 20.632 264.424 20.632V18.632C263.089 18.632 261.849 18.9544 260.729 19.6082L261.736 21.3358ZM264.424 20.632C265.43 20.632 266.249 20.8472 266.92 21.2392L267.929 19.5128C266.904 18.9128 265.723 18.632 264.424 18.632V20.632ZM266.92 21.2392C267.635 21.6576 268.128 22.1589 268.445 22.7321L270.195 21.7639C269.681 20.8331 268.91 20.0864 267.929 19.5128L266.92 21.2392ZM270.32 22.248V19.848H268.32V22.248H270.32ZM269.32 20.848H271.528V18.848H269.32V20.848ZM270.528 19.848V33H272.528V19.848H270.528ZM271.528 32H269.32V34H271.528V32ZM270.32 33V30.552H268.32V33H270.32ZM268.449 30.0617C268.114 30.6564 267.601 31.1765 266.867 31.6117L267.886 33.3323C268.88 32.7435 269.663 31.9836 270.192 31.0423L268.449 30.0617ZM266.872 31.6088C266.199 32.002 265.387 32.216 264.4 32.216V34.216C265.686 34.216 266.858 33.934 267.881 33.3352L266.872 31.6088ZM264.4 32.216C263.405 32.216 262.531 31.9732 261.753 31.4984L260.712 33.2056C261.821 33.8828 263.059 34.216 264.4 34.216V32.216ZM261.753 31.4984C260.974 31.0227 260.352 30.354 259.887 29.4645L258.114 30.3915C258.737 31.582 259.603 32.5293 260.712 33.2056L261.753 31.4984ZM259.887 29.4645C259.427 28.5854 259.184 27.564 259.184 26.376H257.184C257.184 27.844 257.486 29.1906 258.114 30.3915L259.887 29.4645ZM270.32 26.4C270.32 25.2719 270.092 24.2379 269.599 23.3305L267.842 24.2855C268.149 24.8501 268.32 25.5441 268.32 26.4H270.32ZM269.599 23.3305C269.115 22.4392 268.44 21.7369 267.576 21.2548L266.601 23.0012C267.113 23.2871 267.526 23.7048 267.842 24.2855L269.599 23.3305ZM267.6 21.2687C266.766 20.7725 265.844 20.528 264.856 20.528V22.528C265.501 22.528 266.067 22.6835 266.577 22.9873L267.6 21.2687ZM264.856 20.528C263.876 20.528 262.96 20.7607 262.128 21.2358L263.121 22.9722C263.633 22.6793 264.205 22.528 264.856 22.528V20.528ZM262.128 21.2358C261.282 21.7195 260.619 22.4212 260.138 23.3065L261.895 24.2615C262.214 23.6748 262.623 23.2565 263.121 22.9722L262.128 21.2358ZM260.138 23.3065C259.645 24.2139 259.416 25.2479 259.416 26.376H261.416C261.416 25.5201 261.588 24.8261 261.895 24.2615L260.138 23.3065ZM259.416 26.376C259.416 27.5178 259.644 28.5647 260.134 29.4856L261.899 28.5464C261.589 27.9633 261.416 27.2502 261.416 26.376H259.416ZM260.138 29.4935C260.617 30.3758 261.275 31.0808 262.113 31.5793L263.136 29.8607C262.629 29.5592 262.216 29.1282 261.895 28.5385L260.138 29.4935ZM262.128 31.5882C262.96 32.0633 263.876 32.296 264.856 32.296V30.296C264.205 30.296 263.633 30.1447 263.121 29.8518L262.128 31.5882ZM264.856 32.296C265.837 32.296 266.753 32.0633 267.585 31.5882L266.592 29.8518C266.08 30.1447 265.508 30.296 264.856 30.296V32.296ZM267.591 31.5845C268.446 31.0875 269.116 30.3817 269.599 29.4935L267.842 28.5385C267.525 29.1223 267.107 29.5525 266.586 29.8555L267.591 31.5845ZM269.603 29.4856C270.092 28.5669 270.32 27.5287 270.32 26.4H268.32C268.32 27.2553 268.149 27.9611 267.838 28.5464L269.603 29.4856ZM264.767 15.7789L261.431 17.8189L262.474 19.5251L265.81 17.4851L264.767 15.7789ZM262.952 18.672V16.944H260.952V18.672H262.952ZM262.465 17.8026L265.801 15.8106L264.776 14.0934L261.44 16.0854L262.465 17.8026ZM264.773 15.8089L268.085 17.8009L269.116 16.0871L265.804 14.0951L264.773 15.8089ZM267.6 16.944V18.672H269.6V16.944H267.6ZM269.125 17.8206L265.813 15.7806L264.764 17.4834L268.076 19.5234L269.125 17.8206ZM285.107 21.072L284.406 21.7849L284.412 21.7906L285.107 21.072ZM286.595 33V34H287.595V33H286.595ZM284.435 33H283.435V34H284.435V33ZM283.451 22.56L282.72 23.2418L282.727 23.2501L283.451 22.56ZM278.003 22.584L277.28 21.8931L277.272 21.9017L278.003 22.584ZM276.995 33V34H277.995V33H276.995ZM274.811 33H273.811V34H274.811V33ZM274.811 19.848V18.848H273.811V19.848H274.811ZM276.995 19.848H277.995V18.848H276.995V19.848ZM276.995 21.72H275.995V25.1248L277.836 22.2608L276.995 21.72ZM278.747 20.16L278.308 19.2617L278.3 19.2656L278.747 20.16ZM281.219 20.608C282.599 20.608 283.629 21.0207 284.406 21.7848L285.809 20.3592C284.601 19.1713 283.039 18.608 281.219 18.608V20.608ZM284.412 21.7906C285.152 22.5073 285.595 23.6042 285.595 25.248H287.595C287.595 23.2438 287.046 21.5567 285.803 20.3534L284.412 21.7906ZM285.595 25.248V33H287.595V25.248H285.595ZM286.595 32H284.435V34H286.595V32ZM285.435 33V25.56H283.435V33H285.435ZM285.435 25.56C285.435 24.09 285.066 22.8049 284.175 21.8699L282.727 23.2501C283.148 23.6911 283.435 24.406 283.435 25.56H285.435ZM284.183 21.8783C283.303 20.9346 282.122 20.504 280.763 20.504V22.504C281.676 22.504 282.287 22.7774 282.72 23.2417L284.183 21.8783ZM280.763 20.504C279.385 20.504 278.187 20.9443 277.28 21.8931L278.726 23.2749C279.195 22.7837 279.838 22.504 280.763 22.504V20.504ZM277.272 21.9017C276.369 22.8695 275.995 24.1998 275.995 25.728H277.995C277.995 24.5042 278.293 23.7385 278.734 23.2663L277.272 21.9017ZM275.995 25.728V33H277.995V25.728H275.995ZM276.995 32H274.811V34H276.995V32ZM275.811 33V19.848H273.811V33H275.811ZM274.811 20.848H276.995V18.848H274.811V20.848ZM275.995 19.848V21.72H277.995V19.848H275.995ZM277.836 22.2608C278.168 21.7446 278.614 21.3446 279.194 21.0544L278.3 19.2656C277.408 19.7114 276.686 20.3514 276.154 21.1792L277.836 22.2608ZM279.187 21.0582C279.792 20.7618 280.465 20.608 281.219 20.608V18.608C280.182 18.608 279.206 18.8222 278.308 19.2618L279.187 21.0582Z" fill="black" fill-opacity="0.5" mask="url(#path-3-inside-1_650_731)"/>
</svg>
